<?xml version="1.0" encoding="utf-8"?>
<!-- Generator: Adobe Illustrator 20.0.0, SVG Export Plug-In . SVG Version: 6.00 Build 0)  -->
<svg version="1.1" id="Logo" xmlns="http://www.w3.org/2000/svg" xmlns:xlink="http://www.w3.org/1999/xlink" x="0px" y="0px"
	 width="530px" height="76px" viewBox="0 0 530 76" enable-background="new 0 0 530 76" xml:space="preserve">
<g id="Group-19" transform="translate(254.417526, 20.388508)">
	<path id="Fill-1" fill="#FEFEFE" d="M69.2,13.7c2.6,0,4.8-1.6,5.7-4.1h-1.6c-0.7,1.6-2.3,2.7-4.1,2.7c-2.5,0-4.6-2.3-4.6-5
		c0-2.7,2.1-5,4.6-5c2,0,3.4,1.1,4.1,2.7h1.6c-0.8-2.4-2.8-4.1-5.7-4.1c-3.4,0-6.1,2.9-6.1,6.4C63.1,10.8,65.9,13.7,69.2,13.7"/>
	<path id="Fill-3" fill="#FEFEFE" d="M84.1,13.5V7.9c0-2.3-1.3-3.9-3.5-3.9c-1.1,0-2,0.4-2.6,1.2v-5h-1.5v13.3h1.5V7.8
		c0-1.4,1-2.4,2.4-2.4c1.5,0,2.2,1,2.2,2.4v5.6H84.1z"/>
	<path id="Fill-5" fill="#FEFEFE" d="M89.3,8c-2.4,0.1-3.7,1-3.7,2.9c0,2,1.7,2.8,3.6,2.8c1.4,0,2.5-0.5,3.1-1.3
		c0,0.4,0.1,0.8,0.2,1.1H94c-0.1-0.4-0.3-1-0.3-1.5V6.9C93.7,5.2,92.5,4,90,4c-2.3,0-3.9,1.2-4,3h1.6c0.2-1.3,1.4-1.6,2.4-1.6
		c1.5,0,2.2,0.6,2.2,1.3C92.3,7.4,91.5,7.8,89.3,8L89.3,8z M92.3,9.9c0,1.7-1.5,2.3-3.1,2.3c-1.2,0-2.1-0.4-2.1-1.4
		c0-0.8,0.4-1.5,2.4-1.6c1.1-0.1,2.2-0.2,2.8-0.7V9.9z"/>
	<path id="Fill-7" fill="#FEFEFE" d="M107.3,7.7v5.7h1.5V7.8c0-2.3-1.3-3.7-3.4-3.7c-1.3,0-2.3,0.6-2.9,1.6c-0.6-1-1.5-1.6-2.8-1.6
		c-1,0-1.9,0.5-2.4,1.2c0,0,0-1-1.1-1h-0.3v9.2h1.5V7.8c0-1.4,0.9-2.4,2.2-2.4c1.3,0,2.1,0.9,2.1,2.3v5.7h1.5V7.8
		c0-1.4,0.9-2.4,2.1-2.4C106.7,5.4,107.3,6.3,107.3,7.7"/>
	<path id="Fill-9" fill="#FEFEFE" d="M112.5,12.4V12c0.6,0.9,1.8,1.7,3.2,1.7c2.6,0,4.6-2.2,4.6-4.8S118.3,4,115.6,4
		c-1.3,0-2.5,0.7-3.1,1.6V0.2H111v13.3h0.3C111.3,13.5,112.5,13.5,112.5,12.4 M115.6,5.4c1.7,0,3.1,1.5,3.1,3.4
		c0,1.9-1.4,3.4-3.1,3.4c-1.7,0-3.1-1.5-3.1-3.4C112.5,7,113.9,5.4,115.6,5.4"/>
	<path id="Fill-11" fill="#FEFEFE" d="M123.3,5.3L123.3,5.3L123.3,5.3c0,0,0-1-1.1-1h-0.4v9.2h1.5V8.1c0-1.8,1.4-2.7,2.9-2.6V4
		C125.2,3.9,123.9,4.3,123.3,5.3"/>
	<path id="Fill-13" fill="#FEFEFE" d="M135.6,10.6H134c-0.5,1.1-1.4,1.7-2.7,1.7c-1.5,0-3-1.1-3.2-3h7.7c0-3.3-2.3-5.2-4.6-5.2
		c-2.5,0-4.6,2.2-4.6,4.8c0,2.7,2.1,4.8,4.7,4.8C133.4,13.7,135,12.6,135.6,10.6 M131.2,5.4c1.3,0,2.6,1,3,2.5h-5.9
		C128.6,6.3,129.9,5.4,131.2,5.4"/>
	<path id="Fill-15" fill="#FEFEFE" d="M140.7,12.3c-1.3,0-2.4-0.7-2.6-1.7h-1.5c0.2,1.9,1.9,3.1,4.1,3.1c2.2,0,3.8-1.2,3.8-3
		c0-2.1-1.7-2.5-3.7-2.8c-1.8-0.3-2.3-0.5-2.3-1.2c0-0.7,0.9-1.3,2.1-1.3c1.1,0,2,0.5,2.2,1.5h1.5c-0.2-1.8-1.6-2.9-3.7-2.9
		c-2.5,0-3.6,1.4-3.6,2.7c0,1.7,1.4,2.3,3.6,2.6c2.2,0.3,2.5,0.8,2.5,1.4C143,11.6,142.1,12.3,140.7,12.3"/>
	<path id="Fill-17" fill="#FEFEFE" d="M152.7,8.1c0-1.8,1.4-2.7,2.9-2.6V4c-1-0.1-2.3,0.3-3,1.2v0v0c0-0.1-0.1-1-1.1-1h-0.4v9.2h1.5
		V8.1z"/>
</g>
<polygon id="Fill-20" fill="#FEFEFE" points="417.9,21 416,21 414.5,23.4 415.7,23.4 "/>
<g id="Group-25" transform="translate(347.097938, 24.213905)">
	<path id="Fill-21" fill="#FEFEFE" d="M72.3,6.8h-1.6c-0.5,1.1-1.4,1.7-2.7,1.7c-1.5,0-3-1.1-3.2-3h7.7c0-3.3-2.3-5.2-4.6-5.2
		c-2.5,0-4.6,2.2-4.6,4.8c0,2.7,2.1,4.8,4.7,4.8C70.1,9.8,71.7,8.7,72.3,6.8 M67.9,1.6c1.3,0,2.6,1,3,2.5h-5.9
		C65.3,2.5,66.6,1.6,67.9,1.6"/>
	<path id="Fill-23" fill="#FEFEFE" d="M78.1,9.9c1.3,0,2.5-0.7,3.1-1.6v1c0,1.7-0.9,3.5-3.2,3.5c-0.7,0-2.1-0.2-2.7-1.6h-1.6
		c0.5,1.9,2.1,3,4.3,3c2.8,0,4.7-2,4.7-4.9V0.4h-0.3c-1.1,0-1.1,1-1.1,1v0.4c-0.6-0.9-1.8-1.7-3.2-1.7c-2.6,0-4.6,2.2-4.6,4.8
		C73.5,7.7,75.4,9.9,78.1,9.9 M78.1,1.6c1.7,0,3.1,1.5,3.1,3.4c0,1.9-1.4,3.4-3.1,3.4c-1.7,0-3.1-1.5-3.1-3.4
		C75,3.1,76.3,1.6,78.1,1.6"/>
</g>
<polygon id="Fill-26" fill="#FEFEFE" points="431.9,23.3 433.4,23.3 433.4,21.7 431.9,21.7 "/>
<polygon id="Fill-27" fill="#FEFEFE" points="431.9,33.8 433.4,33.8 433.4,24.6 431.9,24.6 "/>
<g id="Group-34" transform="translate(371.118557, 24.213905)">
	<path id="Fill-28" fill="#FEFEFE" d="M68.5,9.8c2.6,0,4.6-2.1,4.6-4.8c0-2.7-2-4.9-4.6-4.9c-2.6,0-4.6,2.2-4.6,4.9
		C63.9,7.7,65.9,9.8,68.5,9.8 M68.5,1.6c1.7,0,3.1,1.6,3.1,3.5c0,1.9-1.4,3.4-3.1,3.4c-1.7,0-3.1-1.5-3.1-3.4
		C65.4,3.1,66.8,1.6,68.5,1.6"/>
	<path id="Fill-30" fill="#FEFEFE" d="M78.8,0.2c-1.1,0-2,0.5-2.7,1.2c0,0,0-1-1.1-1h-0.3v9.2h1.5V4c0-1.4,1-2.4,2.4-2.4
		c1.5,0,2.2,1,2.2,2.4v5.6h1.5V4.1C82.3,1.8,81,0.2,78.8,0.2"/>
	<path id="Fill-32" fill="#FEFEFE" d="M87.6,4.1c-2.4,0.1-3.7,1-3.7,2.9c0,2,1.7,2.8,3.6,2.8c1.4,0,2.5-0.5,3.1-1.3
		c0,0.4,0.1,0.8,0.2,1.1h1.5c-0.1-0.4-0.3-1-0.3-1.5V3.1c0-1.7-1.2-2.9-3.7-2.9c-2.3,0-3.9,1.2-4,3h1.6c0.2-1.3,1.4-1.6,2.4-1.6
		c1.5,0,2.2,0.6,2.2,1.3C90.5,3.6,89.8,4,87.6,4.1L87.6,4.1z M90.5,6.1c0,1.7-1.5,2.3-3.1,2.3c-1.2,0-2.1-0.4-2.1-1.4
		c0-0.8,0.4-1.5,2.4-1.6c1.1-0.1,2.2-0.2,2.8-0.7V6.1z"/>
</g>
<polygon id="Fill-35" fill="#FEFEFE" points="465.3,33.8 466.8,33.8 466.8,20.6 465.3,20.6 "/>
<g id="Group-50" transform="translate(254.417526, 24.213905)">
	<path id="Fill-36" fill="#FEFEFE" d="M218.6,0.2c-2.5,0-4.6,2.2-4.6,4.8c0,2.7,2.1,4.8,4.7,4.8c2.1,0,3.7-1.1,4.3-3.1h-1.6
		c-0.5,1.1-1.4,1.7-2.7,1.7c-1.5,0-3-1.1-3.2-3h7.7C223.2,2.2,221,0.2,218.6,0.2L218.6,0.2z M215.6,4.1c0.4-1.6,1.7-2.5,3-2.5
		c1.3,0,2.6,1,3,2.5H215.6z"/>
	<path id="Fill-38" fill="#FEFEFE" d="M228.1,8.4c-1.3,0-2.4-0.7-2.6-1.7H224c0.2,1.9,1.9,3.1,4.1,3.1c2.2,0,3.8-1.2,3.8-3
		c0-2.1-1.7-2.5-3.7-2.8c-1.8-0.3-2.3-0.5-2.3-1.2c0-0.7,0.9-1.3,2.1-1.3c1.1,0,2,0.5,2.2,1.5h1.5c-0.2-1.8-1.6-2.9-3.7-2.9
		c-2.5,0-3.6,1.4-3.6,2.7c0,1.7,1.4,2.3,3.6,2.6c2.2,0.3,2.5,0.8,2.5,1.4C230.4,7.8,229.5,8.4,228.1,8.4"/>
	<path id="Fill-40" fill="#FEFEFE" d="M72.4,21.4v-0.9h-1.5v0.9c0,0.4-0.1,0.9-0.2,1.3L68,19.3c1.4-0.8,2.3-1.6,2.3-3.1
		c0-1.6-1.2-2.7-2.8-2.7s-2.9,1.2-2.9,2.8c0,0.8,0.4,1.6,1,2.3l0.2,0.3c-1.4,0.8-2.6,1.9-2.6,3.8c0,2.2,2,3.7,4.4,3.7
		c1.3,0,2.5-0.5,3.4-1.3l0.9,1.1h1.9l-1.9-2.4C72.2,23.2,72.4,22.3,72.4,21.4 M67.5,14.9c0.8,0,1.3,0.5,1.3,1.3
		c0,0.7-0.4,1.2-1.7,1.9l-0.4-0.5c-0.4-0.5-0.6-0.9-0.6-1.4C66.1,15.5,66.7,14.9,67.5,14.9 M67.5,25c-1.7,0-2.8-1.1-2.8-2.3
		c0-1,0.6-1.8,2-2.7l3.3,4C69.4,24.7,68.5,25,67.5,25"/>
	<path id="Fill-42" fill="#FEFEFE" d="M81.7,22.9v-4.4h2.1v-1.4h-2.1v-2h-1.5v2H79v0.3c0,1.1,1.2,1.1,1.2,1.1v4.4
		c0,2.3,1.5,3.6,3.6,3.4v-1.4C82.7,24.9,81.7,24.5,81.7,22.9"/>
	<path id="Fill-44" fill="#FEFEFE" d="M88.8,16.8c-2.5,0-4.6,2.2-4.6,4.8c0,2.7,2.1,4.8,4.7,4.8c2.1,0,3.7-1.1,4.3-3.1h-1.6
		c-0.5,1.1-1.4,1.7-2.7,1.7c-1.5,0-3-1.1-3.2-3h7.7C93.5,18.8,91.2,16.8,88.8,16.8L88.8,16.8z M85.8,20.7c0.4-1.6,1.7-2.5,3-2.5
		c1.3,0,2.6,1,3,2.5H85.8z"/>
	<path id="Fill-46" fill="#FEFEFE" d="M96.4,18.1L96.4,18.1c0-0.2-0.1-1-1.1-1H95v9.2h1.5v-5.3c0-1.8,1.4-2.7,2.9-2.6v-1.5
		C98.4,16.7,97.1,17.1,96.4,18.1"/>
	<path id="Fill-48" fill="#FEFEFE" d="M102.1,18.1L102.1,18.1c0-0.2-0.1-1-1.1-1h-0.3v9.2h1.5v-5.3c0-1.8,1.3-2.7,2.9-2.6v-1.5
		C104,16.7,102.8,17.1,102.1,18.1"/>
</g>
<polygon id="Fill-51" fill="#FEFEFE" points="360.7,39.9 362.2,39.9 362.2,38.3 360.7,38.3 "/>
<polygon id="Fill-52" fill="#FEFEFE" points="360.7,50.5 362.2,50.5 362.2,41.3 360.7,41.3 "/>
<g id="Group-59" transform="translate(300.257732, 38.690095)">
	<path id="Fill-53" fill="#FEFEFE" d="M65.9,8.4V4H68V2.6h-2.1v-2h-1.5v2h-1.2v0.3C63.2,4,64.4,4,64.4,4v4.4c0,2.3,1.5,3.6,3.6,3.4
		v-1.4C66.9,10.5,65.9,10,65.9,8.4"/>
	<path id="Fill-55" fill="#FEFEFE" d="M73,2.3c-2.6,0-4.6,2.2-4.6,4.9c0,2.6,2,4.8,4.6,4.8c2.6,0,4.6-2.1,4.6-4.8
		C77.6,4.5,75.6,2.3,73,2.3 M73,10.6c-1.7,0-3.1-1.5-3.1-3.4c0-1.9,1.4-3.5,3.1-3.5c1.7,0,3.1,1.6,3.1,3.5
		C76.1,9.1,74.7,10.6,73,10.6"/>
	<path id="Fill-57" fill="#FEFEFE" d="M80.7,3.6L80.7,3.6c0-0.2-0.1-1-1.1-1h-0.3v9.2h1.5V6.5c0-1.8,1.4-2.7,2.9-2.6V2.4
		C82.6,2.2,81.4,2.6,80.7,3.6"/>
</g>
<polygon id="Fill-60" fill="#FEFEFE" points="385.1,50.5 386.6,50.5 386.6,41.3 385.1,41.3 "/>
<polygon id="Fill-61" fill="#FEFEFE" points="385.1,39.9 386.6,39.9 386.6,38.3 385.1,38.3 "/>
<path id="Fill-62" fill="#FEFEFE" d="M396.4,43.9c0-1.7-1.2-2.9-3.7-2.9c-2.3,0-3.9,1.2-4,3h1.6c0.2-1.3,1.4-1.6,2.4-1.6
	c1.5,0,2.2,0.6,2.2,1.3s-0.7,1.1-3,1.2c-2.4,0.1-3.7,1-3.7,2.9c0,2,1.7,2.8,3.6,2.8c1.4,0,2.5-0.5,3.1-1.3c0,0.4,0.1,0.8,0.2,1.1
	h1.5c-0.1-0.4-0.3-1-0.3-1.5V43.9z M394.9,46.9c0,1.7-1.5,2.3-3.1,2.3c-1.2,0-2.1-0.4-2.1-1.4c0-0.8,0.4-1.5,2.4-1.6
	c1.1-0.1,2.2-0.2,2.8-0.7V46.9z"/>
<polygon id="Fill-64" fill="#FEFEFE" points="398.6,50.5 400.1,50.5 400.1,37.2 398.6,37.2 "/>
<g id="Group-126" transform="translate(0.000000, 0.086921)">
	<path id="Fill-65" fill="#FEFEFE" d="M406.3,40.9c-2.5,0-4.6,2.2-4.6,4.8c0,2.7,2.1,4.8,4.7,4.8c2.1,0,3.7-1.1,4.3-3.1h-1.6
		c-0.5,1.1-1.4,1.7-2.7,1.7c-1.5,0-3-1.1-3.2-3h7.7C410.9,42.9,408.6,40.9,406.3,40.9L406.3,40.9z M403.3,44.8
		c0.4-1.6,1.7-2.5,3-2.5c1.3,0,2.6,1,3,2.5H403.3z"/>
	<path id="Fill-67" fill="#FEFEFE" d="M415.9,44.8c-1.8-0.3-2.3-0.5-2.3-1.2c0-0.7,0.9-1.3,2.1-1.3c1.1,0,2,0.5,2.2,1.5h1.5
		c-0.2-1.8-1.6-2.9-3.7-2.9c-2.5,0-3.6,1.4-3.6,2.7c0,1.7,1.4,2.3,3.6,2.6c2.2,0.3,2.5,0.8,2.5,1.4c0,0.8-0.9,1.5-2.3,1.5
		c-1.3,0-2.4-0.7-2.6-1.7h-1.5c0.2,1.9,1.9,3.1,4.1,3.1c2.2,0,3.8-1.2,3.8-3C419.6,45.5,417.9,45.1,415.9,44.8"/>
	<path id="Fill-69" fill="#FEFEFE" d="M441,40.9c-2.5,0-4.6,2.2-4.6,4.8c0,2.7,2.1,4.8,4.7,4.8c2.1,0,3.7-1.1,4.3-3.1h-1.6
		c-0.5,1.1-1.4,1.7-2.7,1.7c-1.5,0-3-1.1-3.2-3h7.7C445.7,42.9,443.4,40.9,441,40.9L441,40.9z M438,44.8c0.4-1.6,1.7-2.5,3-2.5
		c1.3,0,2.6,1,2.9,2.5H438z"/>
	<path id="Fill-71" fill="#FEFEFE" d="M450.6,44.8c-1.8-0.3-2.3-0.5-2.3-1.2c0-0.7,0.9-1.3,2.1-1.3c1.1,0,2,0.5,2.2,1.5h1.5
		c-0.2-1.8-1.6-2.9-3.7-2.9c-2.5,0-3.6,1.4-3.6,2.7c0,1.7,1.4,2.3,3.6,2.6c2.2,0.3,2.5,0.8,2.5,1.4c0,0.8-0.9,1.5-2.3,1.5
		c-1.3,0-2.4-0.7-2.6-1.7h-1.5c0.2,1.9,1.9,3.1,4.1,3.1c2.2,0,3.7-1.2,3.7-3C454.3,45.5,452.6,45.1,450.6,44.8"/>
	<path id="Fill-73" fill="#FEFEFE" d="M464.9,42.3c1.2,0,2.1,0.7,2.6,1.7h1.6c-0.6-1.9-2.2-3.1-4.3-3.1c-2.5,0-4.6,2.2-4.6,4.8
		s2.1,4.8,4.6,4.8c2,0,3.7-1.2,4.3-3.1h-1.6c-0.5,1-1.4,1.7-2.6,1.7c-1.7,0-3.1-1.5-3.1-3.4C461.9,43.9,463.2,42.3,464.9,42.3"/>
	<path id="Fill-75" fill="#FEFEFE" d="M474.6,40.9c-2.6,0-4.6,2.2-4.6,4.9c0,2.6,2,4.8,4.6,4.8c2.6,0,4.6-2.1,4.6-4.8
		C479.2,43.1,477.3,40.9,474.6,40.9 M474.6,49.2c-1.7,0-3.1-1.5-3.1-3.4c0-1.9,1.4-3.5,3.1-3.5c1.7,0,3.1,1.6,3.1,3.5
		C477.7,47.7,476.4,49.2,474.6,49.2"/>
	<path id="Fill-77" fill="#FEFEFE" d="M490.4,40.9c-1.3,0-2.3,0.6-2.9,1.6c-0.6-1-1.5-1.6-2.8-1.6c-1,0-1.9,0.5-2.4,1.2v0l0,0
		c0,0,0-1-1.1-1h-0.4v9.2h1.5v-5.6c0-1.4,0.9-2.4,2.2-2.4c1.3,0,2.1,0.9,2.1,2.3v5.7h1.5v-5.6c0-1.4,0.9-2.4,2.2-2.4
		c1.4,0,2.1,0.9,2.1,2.3v5.7h1.5v-5.7C493.8,42.4,492.5,40.9,490.4,40.9"/>
	<path id="Fill-79" fill="#FEFEFE" d="M500.6,40.9c-1.4,0-2.5,0.8-3.2,1.7v-0.5l0,0c0-0.9-0.9-1-1.1-1H496v13.3h1.5V49
		c0.7,0.9,1.8,1.6,3.1,1.6c2.6,0,4.6-2.2,4.6-4.8C505.2,43.1,503.2,40.9,500.6,40.9 M500.6,49.2c-1.7,0-3.1-1.6-3.1-3.4
		c0-1.9,1.4-3.4,3.1-3.4c1.7,0,3.1,1.5,3.1,3.4C503.6,47.6,502.3,49.2,500.6,49.2"/>
	<path id="Fill-81" fill="#FEFEFE" d="M508.3,47v-4.4h2.1v-1.4h-2.1v-2h-1.5v2h-1.2v0.3c0,1.1,1.2,1.1,1.2,1.1V47
		c0,2.3,1.5,3.6,3.6,3.4V49C509.3,49.1,508.3,48.6,508.3,47"/>
	<path id="Fill-83" fill="#FEFEFE" d="M515.5,40.9c-2.5,0-4.6,2.2-4.6,4.8c0,2.7,2.1,4.8,4.7,4.8c2.1,0,3.7-1.1,4.3-3.1h-1.6
		c-0.5,1.1-1.4,1.7-2.7,1.7c-1.5,0-3-1.1-3.2-3h7.7C520.1,42.9,517.8,40.9,515.5,40.9L515.5,40.9z M512.5,44.8
		c0.4-1.6,1.7-2.5,3-2.5c1.3,0,2.6,1,3,2.5H512.5z"/>
	<g id="Group-87" transform="translate(457.592784, 40.809524)">
		<g id="Clip-86">
		</g>
		<defs>
			<filter id="Adobe_OpacityMaskFilter" filterUnits="userSpaceOnUse" x="63.3" y="0.1" width="7.8" height="9.7">
				<feColorMatrix  type="matrix" values="1 0 0 0 0  0 1 0 0 0  0 0 1 0 0  0 0 0 1 0"/>
			</filter>
		</defs>
		<mask maskUnits="userSpaceOnUse" x="63.3" y="0.1" width="7.8" height="9.7" id="mask-2">
			<g filter="url(#Adobe_OpacityMaskFilter)">
				<polygon id="path-1" fill="#FFFFFF" points="71.1,9.8 71.1,0.1 63.3,0.1 63.3,9.8 				"/>
			</g>
		</mask>
		<path id="Fill-85" mask="url(#mask-2)" fill="#FEFEFE" d="M67.4,4c-1.8-0.3-2.3-0.5-2.3-1.2c0-0.7,0.9-1.3,2.1-1.3
			c1.1,0,2,0.5,2.2,1.5h1.5c-0.2-1.8-1.6-2.9-3.7-2.9c-2.5,0-3.6,1.4-3.6,2.7c0,1.7,1.4,2.3,3.6,2.6c2.2,0.3,2.5,0.8,2.5,1.4
			c0,0.8-0.9,1.5-2.3,1.5c-1.3,0-2.4-0.7-2.6-1.7h-1.5c0.2,1.9,1.9,3.1,4.1,3.1c2.2,0,3.8-1.2,3.8-3C71.1,4.7,69.5,4.3,67.4,4"/>
	</g>
	<path id="Fill-88" fill="#FEFEFE" d="M433.3,42.6c-0.7-0.9-1.8-1.6-3.1-1.6c-2.6,0-4.6,2.2-4.6,4.8c0,2.7,2,4.8,4.6,4.8
		c1.4,0,2.5-0.8,3.2-1.7v0.5c0,1,1.1,1,1.1,1h0.3V37.1h-1.5V42.6z M430.2,49.2c-1.7,0-3.1-1.5-3.1-3.4c0-1.9,1.4-3.4,3.1-3.4
		c1.7,0,3.1,1.5,3.1,3.4C433.3,47.7,431.9,49.2,430.2,49.2L430.2,49.2z"/>
	<path id="Fill-90" fill="#FEFEFE" d="M69.1,30.8c2,0,3.4,1.1,4.1,2.7h1.6c-0.8-2.5-2.9-4.1-5.7-4.1c-3.4,0-6.1,2.9-6.1,6.5
		c0,3.6,2.7,6.5,6.1,6.5c2.7,0,4.8-1.6,5.7-4.2h-1.6c-0.7,1.6-2.3,2.7-4.1,2.7c-2.5,0-4.6-2.3-4.6-5C64.5,33.1,66.6,30.8,69.1,30.8"
		/>
	<path id="Fill-92" fill="#FEFEFE" d="M80.3,32.6c-2.6,0-4.6,2.2-4.6,4.9c0,2.6,2,4.8,4.6,4.8c2.6,0,4.6-2.1,4.6-4.8
		C84.9,34.8,82.9,32.6,80.3,32.6 M80.3,40.9c-1.7,0-3.1-1.5-3.1-3.4c0-1.9,1.4-3.5,3.1-3.5c1.7,0,3.1,1.6,3.1,3.5
		C83.4,39.4,82,40.9,80.3,40.9"/>
	<path id="Fill-94" fill="#FEFEFE" d="M92.6,38.5c0,1.4-1,2.4-2.4,2.4c-1.5,0-2.3-1-2.3-2.4v-5.6h-1.5v5.5c0,2.3,1.3,3.9,3.5,3.9
		c1.1,0,2-0.5,2.7-1.2c0,1,1.2,1,1.2,1h0.3v-9.2h-1.5V38.5z"/>
	<path id="Fill-96" fill="#FEFEFE" d="M97.7,33.9L97.7,33.9c0-0.2-0.1-1-1.1-1h-0.3v9.2h1.5v-5.3c0-1.8,1.4-2.7,2.9-2.6v-1.5
		C99.6,32.5,98.4,32.9,97.7,33.9"/>
	<path id="Fill-98" fill="#FEFEFE" d="M114.3,34.3c-0.7-0.9-1.8-1.6-3.1-1.6c-2.6,0-4.6,2.2-4.6,4.8c0,2.7,2,4.8,4.6,4.8
		c1.4,0,2.5-0.8,3.2-1.7v0.5c0,1,1.2,1,1.2,1h0.3V28.8h-1.5V34.3z M111.2,40.9c-1.7,0-3.1-1.5-3.1-3.4c0-1.9,1.4-3.5,3.1-3.5
		c1.7,0,3.1,1.5,3.1,3.5C114.3,39.4,112.9,40.9,111.2,40.9L111.2,40.9z"/>
	<path id="Fill-100" fill="#FEFEFE" d="M122,32.6c-2.5,0-4.6,2.2-4.6,4.8c0,2.7,2.1,4.8,4.7,4.8c2.1,0,3.7-1.1,4.3-3.1h-1.6
		c-0.5,1.1-1.4,1.7-2.7,1.7c-1.5,0-3-1.1-3.2-3h7.7C126.7,34.6,124.4,32.6,122,32.6L122,32.6z M119,36.5c0.4-1.6,1.7-2.5,3-2.5
		c1.3,0,2.6,1,3,2.5H119z"/>
	<path id="Fill-102" fill="#FEFEFE" d="M131.6,36.5c-1.8-0.3-2.3-0.5-2.3-1.2c0-0.7,0.9-1.3,2.1-1.3c1.1,0,2,0.5,2.2,1.5h1.5
		c-0.2-1.8-1.6-2.9-3.7-2.9c-2.5,0-3.6,1.4-3.6,2.7c0,1.7,1.4,2.3,3.6,2.6c2.2,0.3,2.5,0.8,2.5,1.4c0,0.8-0.9,1.5-2.3,1.5
		c-1.3,0-2.4-0.7-2.6-1.7h-1.5c0.2,2,1.9,3.1,4.1,3.1c2.2,0,3.8-1.2,3.8-3C135.3,37.2,133.6,36.8,131.6,36.5"/>
	<path id="Fill-104" fill="#FEFEFE" d="M146,34c1.2,0,2.1,0.7,2.7,1.7h1.6c-0.6-1.9-2.2-3.1-4.3-3.1c-2.5,0-4.6,2.2-4.6,4.8
		s2.1,4.8,4.6,4.8c2,0,3.7-1.2,4.3-3.1h-1.6c-0.5,1-1.4,1.7-2.7,1.7c-1.7,0-3.1-1.5-3.1-3.4C142.9,35.6,144.3,34,146,34"/>
	<path id="Fill-106" fill="#FEFEFE" d="M155.7,32.6c-2.6,0-4.6,2.2-4.6,4.9c0,2.6,2,4.8,4.6,4.8c2.6,0,4.6-2.1,4.6-4.8
		C160.3,34.8,158.3,32.6,155.7,32.6 M155.7,40.9c-1.7,0-3.1-1.5-3.1-3.4c0-1.9,1.4-3.5,3.1-3.5c1.7,0,3.1,1.6,3.1,3.5
		C158.8,39.4,157.4,40.9,155.7,40.9"/>
	<path id="Fill-108" fill="#FEFEFE" d="M171.4,32.6c-1.3,0-2.3,0.6-2.9,1.6c-0.6-1-1.5-1.6-2.8-1.6c-1,0-1.9,0.5-2.4,1.2
		c0,0,0-1-1.1-1h-0.3v9.2h1.5v-5.6c0-1.4,0.9-2.4,2.2-2.4c1.4,0,2.1,0.9,2.1,2.3v5.7h1.5v-5.6c0-1.4,0.9-2.4,2.2-2.4
		c1.4,0,2.1,0.9,2.1,2.3v5.7h1.5v-5.7C174.9,34.1,173.6,32.6,171.4,32.6"/>
	<path id="Fill-110" fill="#FEFEFE" d="M181.6,32.6c-1.4,0-2.5,0.8-3.2,1.7v-0.5c0-1-1.2-1-1.2-1H177v13.3h1.5v-5.5
		c0.7,0.9,1.8,1.6,3.1,1.6c2.6,0,4.6-2.2,4.6-4.8C186.2,34.8,184.2,32.6,181.6,32.6 M181.6,40.9c-1.7,0-3.1-1.6-3.1-3.5
		c0-1.9,1.4-3.4,3.1-3.4c1.7,0,3.1,1.5,3.1,3.4C184.7,39.3,183.3,40.9,181.6,40.9"/>
	<path id="Fill-112" fill="#FEFEFE" d="M189.4,38.7v-4.4h2.1v-1.4h-2.1v-2h-1.5v2h-1.2v0.3c0,1.1,1.2,1.1,1.2,1.1v4.4
		c0,2.3,1.5,3.6,3.6,3.4v-1.4C190.4,40.7,189.4,40.3,189.4,38.7"/>
	<path id="Fill-114" fill="#FEFEFE" d="M196.5,32.6c-2.5,0-4.6,2.2-4.6,4.8c0,2.7,2.1,4.8,4.7,4.8c2.1,0,3.7-1.1,4.3-3.1h-1.6
		c-0.5,1.1-1.4,1.7-2.7,1.7c-1.5,0-3-1.1-3.2-3h7.7C201.1,34.6,198.8,32.6,196.5,32.6L196.5,32.6z M193.5,36.5
		c0.4-1.6,1.7-2.5,3-2.5c1.3,0,2.6,1,3,2.5H193.5z"/>
	<path id="Fill-116" fill="#FEFEFE" d="M206,36.5c-1.8-0.3-2.3-0.5-2.3-1.2c0-0.7,0.9-1.3,2.1-1.3c1.1,0,2,0.5,2.2,1.5h1.5
		c-0.2-1.8-1.6-2.9-3.7-2.9c-2.5,0-3.6,1.4-3.6,2.7c0,1.7,1.4,2.3,3.6,2.6c2.2,0.3,2.5,0.8,2.5,1.4c0,0.8-0.9,1.5-2.3,1.5
		c-1.3,0-2.4-0.7-2.6-1.7h-1.5c0.2,2,1.9,3.1,4.1,3.1c2.2,0,3.8-1.2,3.8-3C209.7,37.2,208.1,36.8,206,36.5"/>
	<path id="Fill-118" fill="#FEFEFE" d="M263.6,65c-15.1,0-27.4-12.3-27.4-27.5c0-15.2,12.3-27.5,27.4-27.5
		c15.1,0,27.4,12.3,27.4,27.5C291,52.6,278.7,65,263.6,65 M263.6,10.9c-14.6,0-26.5,11.9-26.5,26.6S249.1,64,263.6,64
		c14.6,0,26.5-11.9,26.5-26.6S278.2,10.9,263.6,10.9"/>
	<path id="Combined-Shape" fill="#FEFEFE" d="M263.6,74.8c-20.5,0-37.2-16.7-37.2-37.3c0-20.6,16.7-37.3,37.2-37.3
		c20.5,0,37.2,16.7,37.2,37.3C300.8,58,284.1,74.8,263.6,74.8 M263.6,1.8c-19.6,0-35.5,16-35.5,35.7s15.9,35.7,35.5,35.7
		c19.6,0,35.5-16,35.5-35.7S283.2,1.8,263.6,1.8z M278.7,46.9c-4.9,4.7-9.4,6.3-14,6.3c-1.8,0-6.5-0.8-9-4.4c-2.2-3.3-3-7.9-3-10.9
		c0-8.6,2.8-16.8,11.5-16.8c6.8,0,12.4,6,14.5,10.4h0.9v-12h-0.9c-0.6,0.8-2.4,2.3-3.5,2.3c-1.2,0-5.8-2.4-11.4-2.4
		c-12.5,0-19.6,8-19.6,18.3c0,9.5,6,17.9,19.9,17.9c7.6,0,12.3-3.2,16.6-7.5L278.7,46.9z M271.9,28.7h-0.2c-0.4,0.5-1.2,1.3-1.7,1.3
		c-0.7,0-2.7-1.5-5-1.5c-5.5,0-8.7,3.5-8.7,8.3c0,4.4,2.8,8.5,8.8,8.5c3.3,0,5.4-1.5,7.3-3.5l-0.8-0.6c-2.2,2.2-4.1,2.9-6.2,2.9
		c-0.8,0-2.9-0.4-4-2.1c-1-1.5-1.1-3.8-1.1-5.2c0-4,1-7.6,4.8-7.6c2.5,0,5.6,3.5,6.5,4.5h0.2V28.7z M262.2,7.3h2.9V4.4h-2.9V7.3z
		 M230.7,38.9h2.9V36h-2.9V38.9z M293.6,38.9h2.9V36h-2.9V38.9z M243.5,15.1l-2.1,2.1l-2.1-2.1l2.1-2.1L243.5,15.1z M283.8,15.1
		l2.1,2.1l2.1-2.1l-2.1-2.1L283.8,15.1z M262.2,70.5h2.9v-2.9h-2.9V70.5z M243.5,59.8l-2.1-2.1l-2.1,2.1l2.1,2.1L243.5,59.8z
		 M283.8,59.8l2.1-2.1l2.1,2.1l-2.1,2.1L283.8,59.8z M252.6,8.3c0,0.6-0.5,1-1,1c-0.6,0-1-0.5-1-1s0.5-1,1-1
		C252.2,7.2,252.6,7.7,252.6,8.3z M235.6,25.4c0,0.6-0.5,1-1,1s-1-0.5-1-1c0-0.6,0.5-1,1-1S235.6,24.8,235.6,25.4z M274.7,8.3
		c0,0.6,0.5,1,1,1c0.6,0,1-0.5,1-1s-0.5-1-1-1C275.1,7.2,274.7,7.7,274.7,8.3z M291.7,25.4c0,0.6,0.5,1,1,1c0.6,0,1-0.5,1-1
		c0-0.6-0.5-1-1-1C292.1,24.3,291.7,24.8,291.7,25.4z M252.6,66.6c0-0.6-0.5-1-1-1c-0.6,0-1,0.5-1,1c0,0.6,0.5,1,1,1
		C252.2,67.7,252.6,67.2,252.6,66.6z M235.6,49.5c0-0.6-0.5-1-1-1s-1,0.5-1,1s0.5,1,1,1S235.6,50.1,235.6,49.5z M274.7,66.6
		c0-0.6,0.5-1,1-1c0.6,0,1,0.5,1,1c0,0.6-0.5,1-1,1C275.1,67.7,274.7,67.2,274.7,66.6z M291.7,49.5c0-0.6,0.5-1,1-1c0.6,0,1,0.5,1,1
		s-0.5,1-1,1C292.1,50.6,291.7,50.1,291.7,49.5z"/>
</g>
</svg>
