<svg xmlns="http://www.w3.org/2000/svg" viewBox="0 0 280 280" enable-background="new 0 0 280 280"><style type="text/css">.st0{fill:#00005E;} .st1{fill:#5E0000;} .st2{fill:#5E0000;} .st3{fill:#5E0000;} .st4{fill:#5E0000;} .st5{fill:#5E0000;} .st6{fill:#5E0000;} .st7{fill:#5E0000;} .st8{fill:#5E0000;} .st9{fill:#5E0000;} .st10{opacity:0.22;enable-background:new ;} .st11{fill:#5E0000;} .st12{fill:#5E0000;} .st13{fill:#5E0000;}</style>
<path class="st1" d="M215.6 218.2c-1.6 0-3-1.1-3.3-2.7l-18.7-70c-.4-1.8.8-3.6 2.6-4s3.6.8 4 2.6l18.7 70c.4 1.8-.8 3.6-2.6 4-.2.1-.4.1-.7.1z"/>
<path class="st2" d="M212 222.2h-.6l-75.4-13.9c-1.8-.3-3.1-2.1-2.8-3.9.3-1.8 2.1-3.1 3.9-2.8l75.4 13.9c1.8.3 3.1 2.1 2.8 3.9-.2 1.7-1.7 2.8-3.3 2.8z"/>
<path class="st3" d="M135.5 208.7c-1.7 0-3.1-1.2-3.4-2.9l-10.9-81.6c-.2-1.9 1.1-3.6 2.9-3.8 1.9-.2 3.6 1.1 3.8 2.9l10.9 81.6c.2 1.9-1.1 3.6-2.9 3.8h-.4z"/>
<path class="st1" d="M64.7 231h-.5c-1.9-.3-3.1-2-2.8-3.9l11.2-70.5c.3-1.9 2-3.1 3.9-2.8s3.1 2 2.8 3.9l-11.3 70.5c-.2 1.6-1.7 2.8-3.3 2.8z"/>
<path class="st2" d="M198 146.5c-1.2 0-2.3-.6-3-1.7l-40-71.3c-.9-1.6-.3-3.7 1.3-4.6s3.7-.3 4.6 1.3l40 71.3c.9 1.6.3 3.7-1.3 4.6-.5.3-1.1.4-1.6.4z"/>
<path class="st4" d="M158 75.2c-.9 0-1.8-.4-2.5-1.1-1.3-1.4-1.2-3.5.2-4.8l37.2-34.3c1.4-1.3 3.5-1.2 4.8.2s1.2 3.5-.2 4.8l-37.2 34.3c-.6.6-1.5.9-2.3.9z"/>
<path class="st1" d="M225.7 78.7h-.2l-67.7-3.5c-1.9-.1-3.3-1.7-3.2-3.6s1.7-3.3 3.6-3.2l67.7 3.5c1.9.1 3.3 1.7 3.2 3.6-.1 1.8-1.6 3.2-3.4 3.2z"/>
<path class="st4" d="M229.5 75.6c.1-1.9-1.3-3.5-3.1-3.6-1.9-.1-3.5 1.3-3.6 3.1l-10.5 140.4-144.3 11.3c-1.9.1-3.3 1.7-3.2 3.6.1 1.8 1.6 3.2 3.4 3.2h.2l147.2-11.6h.6l.3-.1c.1 0 .2-.1.4-.1l.2-.1.4-.3s.1 0 .1-.1c.2-.1.3-.3.4-.4.5-.5.8-1.2.9-2l10.6-143.3zm-32 71.4c-.3 0-.6 0-.9-.1l-72.8-19.9c-1.8-.5-2.9-2.4-2.4-4.2.5-1.8 2.4-2.9 4.2-2.4l72.9 19.8c1.8.5 2.9 2.4 2.4 4.2-.5 1.6-1.9 2.6-3.4 2.6zm-62 61.7c-.8 0-1.5-.2-2.1-.8l-59.6-48.2c-1.5-1.2-1.7-3.3-.5-4.8s3.3-1.7 4.8-.5l59.6 48.2c1.5 1.2 1.7 3.3.5 4.8-.7.9-1.7 1.3-2.7 1.3zm-70.8 22.3c-1.4 0-2.8-.9-3.2-2.4l-25.9-80.3c-.6-1.8.4-3.7 2.2-4.3s3.7.4 4.3 2.2l25.9 80.3c.6 1.8-.4 3.7-2.2 4.3-.4.2-.8.2-1.1.2z"/>
<path class="st5" d="M71.7 161.8l-.4 2.5c2.3-.6 4.7-1.3 7.2-2.3l.4-2.8c-2.4 1.1-4.8 1.9-7.2 2.6z"/>
<path class="st6" d="M125 127.4l-2.9 2.8.4 3.3c1.9-1.7 3.7-3.5 5.5-5.2l-3-.9z"/>
<path class="st7" d="M80.2 158.7c-1.8.8-3.5 1.4-5.2 2l2.2 1.8c1.7-.6 3.3-1.2 5.1-2l2.1-.9-2.2-1.8c-.6.3-1.3.6-2 .9zm114.3-115.9l2.2-2h-1.3l-4.1.3-5.4.4-2.4 2.2 11-.9z"/>
<path class="st5" d="M195.6 153l.9 3.3c2.4-3 4.2-5.3 5.2-6.7l-.9-3.4c-.3.3-2.1 2.8-5.2 6.8z"/>
<path class="st8" d="M137.1 208.4l3.6.7c2.5-1.8 5-3.7 7.4-5.5l-3.6-.7c-2.3 1.9-4.8 3.7-7.4 5.5z"/>
<path class="st7" d="M229.4 76.9c-.4 4.2-2.1 17.4-9.4 35l-.6 7.8c4-8.6 6.7-16.4 8.5-22.9l1.5-19.9zm-120.5 146.7c-10.8 4.5-23.8 8.6-37.2 9.7l21.5-1.7c8.6-2.4 16.6-5.5 23.4-8.7l-7.7.7zm-69.6-63.4l1.6 4.9 1.1-7.6c-.7-.8-1.4-1.6-2-2.4l-.7 5.1zm88.8-32l.2-.2c1.8-1.8 3.5-3.6 5.2-5.4l-3-.8c-1.4 1.5-2.8 2.9-4.3 4.4l-1.2 1.2 3.1.8zm35.1-56.9c.6-3.4.9-6.6.8-9.6l-2.1 1.9c-.1 2.4-.5 5-1.1 7.7h2.4z"/>
<path class="st8" d="M160.3 73.3c-.5 2-1.2 4-1.9 6.1l1.6 2.9c1.2-3.1 2.1-6.1 2.8-9.1l-2.5.1z"/>
<path class="st5" d="M159.7 75.3l2.5.1c.6-2.3 1.1-4.6 1.4-6.7l-2.3-.1c-.4 2.2-.9 4.4-1.6 6.7z"/>
<path class="st9" d="M61.1 227.8l-.9-3c2.1.1 5 0 7.1-.2l1 3-7.2.2zm75-26.4l-2.6-2.1c-.7.6-2.1 1.6-2.1 1.6-.1.1-1.5 1-3.7 2.4l3.5 2.8 4.9-4.7z"/>
<path class="st10" d="M205.3 134"/>
<path class="st9" d="M194.2 139.2l-4.4 5.8 3.7 1 4.6-5.8-3.9-1z"/>
<path class="st11" d="M220.8 74.2c0 .6-.1 1.7-.4 4.2l2.6.1.2-4 .1-2.8-2.6-.1c.1 1.1.1 1.6.1 2.6zm-152.2 150.3l-1.3.2.7 2.1h.2l.4-2.3z"/>
<path class="st12" d="M198.1 140.2l-3.9-1.1s2.1-2.8 2.3-3.2c.2-.3.8-1.1.8-1.1l1.9 3.3-1.1 2.1z"/>
<path class="st13" d="M133.5 199.3s2.3-1.8 4.2-3.5l.5 4-2.1 1.6-2.6-2.1z"/>
<path class="st4" d="M61.9 233.6h2.4c36.4 0 71.3-24.1 72.8-25.2 39-27.8 62.6-60.9 63.6-62.3 26.9-37.4 28.7-69.3 28.8-70.7v-.7l-6.8-.3v.7c-.1 1-2.1 31.6-27.5 67-.2.3-23.9 33.6-62 60.7-.7.5-36.2 24.8-70.9 23.9l-.4 6.9z"/>
<path class="st2" d="M200.8 34.4c6.3 1.2 10.9 2.8 17.4 9 7.8 7.4 11.7 18.2 11.4 32l-6.8-.1c.3-11.8-2.9-20.9-9.2-27-7.1-6.8-16.2-7.7-18-7.5l-4.1.3-36.5 2.5.6.6-17.2-6.1 52.8-3.9 2-.1c2-.1 3.3-.1 5.4 0l2.2.3zm-63.7 174.1l-3.9-5.5c38.1-27.1 61.8-60.4 62-60.7l5.6 3.9c-1.1 1.3-24.6 34.5-63.7 62.3zm-72.2 25.1h-3.3c-11.5-.8-20.4-4.9-26.3-12.2-9.9-12.2-7.8-28.7-7.7-29.4l8.8-58 6.7 1-8.8 58c0 .1-1.8 14.3 6.2 24.1 4.7 5.7 11.9 9 21.5 9.6h2.4l.5 6.9z"/>
<path class="st3" d="M58.6 163.9c-6.7 0-12.3-2-16.2-6-7.7-7.8-8.5-21.1-2.3-37.4 5.8-15.1 16.9-31.3 31.2-45.5 14.4-14.3 31.2-25.9 46.3-32.1 16.9-6.9 30.4-6.4 38 1.3 15 15.2 2.4 50.4-29.4 82-14.5 14.4-31.2 26.2-46 32.5-8 3.5-15.3 5.2-21.6 5.2zm80.3-119.1c-5.2 0-11.5 1.5-18.7 4.4-14.2 5.8-30.3 17-44 30.6-13.5 13.4-24.3 29.1-29.7 43.1-5.2 13.7-5 24.4.8 30.2 7.5 7.6 22.2 2.9 30.3-.6 14-6 30-17.3 43.9-31.1 28-27.9 41.2-60.4 29.3-72.4-2.8-2.8-6.8-4.2-11.9-4.2z"/>
</svg>
