<?xml version="1.0" encoding="utf-8"?>
<!-- Generator: Adobe Illustrator 15.1.0, SVG Export Plug-In . SVG Version: 6.00 Build 0)  -->
<!DOCTYPE svg PUBLIC "-//W3C//DTD SVG 1.1//EN" "http://www.w3.org/Graphics/SVG/1.1/DTD/svg11.dtd">
<svg version="1.1" id="Layer_1" xmlns="http://www.w3.org/2000/svg" xmlns:xlink="http://www.w3.org/1999/xlink" x="0px" y="0px"
	 width="70px" height="21px" viewBox="0 0 70 21" enable-background="new 0 0 70 21" xml:space="preserve">
<g>
	<path fill="#F87B14" d="M26.503,16.467V9.872c0-0.464-0.343-0.666-0.748-0.666c-0.811,0-1.823,0.201-2.742,0.604v6.657h-1.87V4.222
		h1.87v4.04c0.889-0.323,1.948-0.604,3.008-0.604c1.698,0,2.336,1.038,2.336,2.461v6.347H26.503L26.503,16.467z M31.846,12.473
		c0.063,2.214,0.499,2.648,1.869,2.648c1.076,0,2.291-0.357,3.227-0.713l0.312,1.392c-0.998,0.451-2.212,0.883-3.661,0.883
		c-3.117,0-3.6-1.702-3.6-4.412c0-1.486,0.109-2.832,0.468-4.071c0.934-0.356,2.181-0.542,3.754-0.542
		c2.556,0,3.335,1.41,3.335,3.871v0.943H31.846L31.846,12.473z M34.214,9.207c-0.561,0-1.448,0.017-2.181,0.155
		c-0.078,0.371-0.172,0.883-0.202,1.825h3.895C35.726,9.902,35.492,9.207,34.214,9.207L34.214,9.207z M41.054,9.81v6.657h-1.87
		V8.975c1.573-0.852,3.24-1.116,4.331-1.191v1.548C42.752,9.392,41.785,9.485,41.054,9.81L41.054,9.81z M48.454,16.684
		c-2.79,0-4.051-1.361-4.051-4.473c0-3.297,1.667-4.552,4.051-4.552c2.788,0,4.052,1.362,4.052,4.475
		C52.506,15.43,50.838,16.684,48.454,16.684L48.454,16.684z M48.454,9.207c-1.434,0-2.229,0.821-2.229,3.004
		c0,2.384,0.67,2.911,2.229,2.911c1.434,0,2.228-0.807,2.228-2.988C50.682,9.747,50.012,9.207,48.454,9.207L48.454,9.207z
		 M61.524,16.467h-2.196c-0.515-1.362-1.23-2.755-2.337-3.962H56.01v3.962h-1.869V4.222h1.869v7.028h0.872
		c0.95-0.975,1.683-2.182,2.197-3.375h2.103c-0.717,1.44-1.635,2.709-2.663,3.746C59.749,13.17,60.716,14.812,61.524,16.467
		L61.524,16.467z M65.03,16.684c-1.698,0-2.337-1.037-2.337-2.462V7.875h1.854v6.578c0,0.467,0.342,0.667,0.746,0.667
		c0.811,0,1.917-0.201,2.837-0.604V7.875H70v7.461C67.788,16.544,66.09,16.684,65.03,16.684L65.03,16.684z"/>
	<path fill-rule="evenodd" clip-rule="evenodd" fill="#F87B14" d="M15.032,21H2.017C0.902,21,0,20.104,0,18.998V2.002
		C0,0.896,0.902,0,2.017,0h13.016c1.114,0,2.017,0.896,2.017,2.002v16.995C17.049,20.104,16.146,21,15.032,21L15.032,21z
		 M16.357,2.116c0-0.789-0.645-1.43-1.44-1.43H2.132c-0.796,0-1.44,0.641-1.44,1.43v16.768c0,0.789,0.644,1.43,1.44,1.43h12.785
		c0.796,0,1.44-0.641,1.44-1.43V2.116L16.357,2.116z"/>
	<path fill="#F87B14" d="M10.685,18.111v-8.34c0,0,0.546-1.995-6.726,0.817c-0.014,0.035-0.014-7.711-0.014-7.711L6.322,2.86v4.964
		c0,0,6.651-2.603,6.651,1.975s0,8.312,0,8.312H10.685L10.685,18.111z M12.038,5.865c0,0-2.492,0-2.52,0
		c0.906-1.103,1.728-2.989,1.728-2.989h2.606C13.853,2.876,13.405,4.105,12.038,5.865L12.038,5.865z M3.989,18.096v-4.75l2.39,2.375
		L3.989,18.096L3.989,18.096z"/>
</g>
</svg>
