<svg width="674" height="85" viewBox="0 0 674 85" fill="none" xmlns="http://www.w3.org/2000/svg">
<path d="M276.989 53.127C276.989 58.6574 275.401 63.2464 272.165 66.8353C268.988 70.483 264.87 72.3068 259.869 72.3068C255.456 72.3068 251.75 70.7771 248.749 67.7766C245.749 64.7761 244.219 60.6577 244.219 55.5392V23.1218H233.158V58.7162C233.158 65.9528 235.57 71.7185 240.454 76.0133C245.278 80.367 251.103 82.5439 257.751 82.5439C265.988 82.5439 272.4 79.2492 276.931 72.601V81.5437H287.991V23.1218H276.931L276.989 53.127Z" fill="#1A1B20"/>
<path d="M332.293 22.1216H331.94C323.174 22.2392 316.467 25.7104 311.76 32.4763V4.35377H300.7V81.5437H311.76V72.3656C316.585 79.0727 323.351 82.3674 331.94 82.3674C340.53 82.3674 347.178 79.4257 352.767 73.5423C358.357 67.6589 361.122 60.54 361.122 52.2445C361.122 43.9489 358.298 36.6535 352.767 30.7701C347.237 25.0044 340.354 22.1216 332.293 22.1216ZM345.06 66.5411C341.177 70.4829 336.529 72.4245 330.999 72.4245C325.469 72.4245 320.88 70.4241 316.997 66.4822C313.114 62.5404 311.172 57.8337 311.172 52.3621C311.172 46.8906 313.114 42.1251 316.938 38.1244C320.821 34.1825 325.469 32.1821 330.999 32.1821C336.529 32.1821 341.118 34.1825 345.001 38.1244C348.884 42.0662 350.826 46.8318 350.826 52.3621C350.826 57.8337 348.884 62.5992 345.06 66.5411Z" fill="#1A1B20"/>
<path fill-rule="evenodd" clip-rule="evenodd" d="M371.476 2.94181C372.888 1.5298 374.653 0.823792 376.772 0.823792C378.831 0.823792 380.596 1.5298 382.008 2.94181C383.479 4.35382 384.185 6.11883 384.185 8.11918C384.185 10.1195 383.479 11.7669 382.008 13.12C380.596 14.4732 378.89 15.1792 376.772 15.1792C374.653 15.1792 372.83 14.5321 371.418 13.1789C369.947 11.8845 369.241 10.1784 369.241 8.11918C369.241 6.06 370.006 4.29499 371.476 2.94181ZM371.123 23.1218H382.184V81.6026H371.123V23.1218Z" fill="#1A1B20"/>
<path d="M421.897 32.1233C425.721 32.1233 429.134 33.1823 432.134 35.2415C435.135 37.3595 437.488 40.1247 439.077 43.5959L449.314 40.9484C447.019 35.3591 443.43 30.8289 438.488 27.2989C433.546 23.8277 428.016 22.0627 421.838 22.0627C413.543 22.0627 406.483 25.0044 400.658 30.8878C394.775 36.7712 391.833 43.89 391.833 52.3033C391.833 60.6577 394.716 67.6001 400.482 73.5423C406.247 79.4845 413.366 82.4262 421.838 82.4262C428.075 82.4262 433.664 80.72 438.547 77.2488C443.43 73.7776 447.019 69.2474 449.314 63.5405L439.077 60.893C437.547 64.3642 435.252 67.1294 432.193 69.2474C429.134 71.3654 425.721 72.3656 421.897 72.3656C416.484 72.3656 411.836 70.4241 408.012 66.4822C404.188 62.5404 402.247 57.8337 402.247 52.3033C402.247 46.7729 404.129 42.0662 407.953 38.0655C411.719 34.1825 416.367 32.1821 421.897 32.1233Z" fill="#1A1B20"/>
<path d="M469.788 4.35377H458.727V81.5437H469.788V4.35377Z" fill="#1A1B20"/>
<path d="M509.677 22.1215C501.381 22.1215 494.321 25.0632 488.438 30.9466C482.613 36.83 479.672 43.9489 479.672 52.2444C479.672 60.54 482.613 67.6589 488.438 73.6011C494.263 79.5433 501.381 82.485 509.677 82.485C517.973 82.485 525.092 79.4845 530.975 73.5423C536.799 67.6589 539.682 60.54 539.682 52.2444C539.682 43.9489 536.741 36.9476 530.916 31.0054C525.092 25.122 517.973 22.1215 509.677 22.1215ZM523.562 66.4234C519.738 70.3652 515.09 72.3067 509.677 72.3067C504.206 72.3067 499.616 70.3652 495.792 66.4822C491.968 62.5992 490.027 57.8336 490.027 52.2444C490.027 46.6552 491.909 42.0073 495.733 38.1243C499.499 34.2413 504.147 32.2998 509.677 32.2998C515.207 32.2998 519.855 34.2413 523.621 38.1243C527.386 42.0073 529.328 46.714 529.328 52.2444C529.328 57.716 527.445 62.4815 523.562 66.4234Z" fill="#1A1B20"/>
<path d="M592.398 53.127C592.398 58.6574 590.809 63.2464 587.573 66.8353C584.396 70.483 580.278 72.3068 575.277 72.3068C570.864 72.3068 567.158 70.7771 564.157 67.7766C561.157 64.7761 559.627 60.6577 559.627 55.5392V23.1218H548.566V58.7162C548.566 65.9528 550.979 71.7185 555.862 76.0133C560.686 80.367 566.511 82.5439 573.159 82.5439C581.396 82.5439 587.808 79.2492 592.339 72.601V81.5437H603.399V23.1218H592.339L592.398 53.127Z" fill="#1A1B20"/>
<path d="M662.939 4.35377V32.3587C658.115 25.5339 651.349 22.1216 642.759 22.1216C634.699 22.1216 627.815 25.0044 622.109 30.829C616.343 36.7124 613.519 43.8901 613.519 52.3033C613.519 60.7165 616.343 67.6001 622.05 73.5423C627.757 79.4845 634.64 82.4262 642.759 82.4262C651.349 82.4262 658.115 79.0727 662.939 72.4245V81.6025H674V4.35377H662.939ZM657.762 66.4234C653.879 70.3653 649.172 72.3656 643.759 72.3656C638.347 72.3656 633.463 70.4241 629.639 66.5411C625.815 62.6581 623.874 57.8925 623.874 52.3033C623.874 46.7141 625.815 42.0662 629.639 38.0655C633.522 34.1237 638.17 32.1233 643.701 32.1233C649.231 32.1233 653.879 34.1237 657.762 38.0655C661.645 42.0662 663.528 46.7729 663.528 52.3033C663.645 57.8337 661.704 62.4816 657.762 66.4234Z" fill="#1A1B20"/>
<path fill-rule="evenodd" clip-rule="evenodd" d="M0 46.1845V56.8334L40.8307 76.9546V66.188L12.9434 52.6562C12.0021 52.1267 10.9431 51.7149 9.94292 51.3619C10.8843 51.0089 11.8844 50.597 12.8846 50.1264L40.7718 36.5946V26.1222L0 46.1845Z" fill="#FF5C12"/>
<path fill-rule="evenodd" clip-rule="evenodd" d="M205.918 46.1845V56.8334L165.088 77.0134V66.2468L192.975 52.7151C193.916 52.1855 194.975 51.7737 195.975 51.4207C195.034 51.0677 194.034 50.6559 193.034 50.1852L165.146 36.6534V26.1222L205.918 46.1845Z" fill="#FF5C12"/>
<path fill-rule="evenodd" clip-rule="evenodd" d="M130.434 84.0734C147.437 84.0734 161.734 70.6005 162.322 53.9505C162.617 45.3608 159.498 37.2417 153.556 31.123C147.614 24.9455 139.613 21.5331 131.023 21.5331H130.964C127.669 8.94267 116.256 -5.91278e-05 102.841 -5.91278e-05C91.3689 -5.91278e-05 81.0141 6.70699 76.3074 17.1794C67.4235 17.3559 59.1279 21.0036 52.8916 27.4165C46.5375 34.0059 43.184 42.7133 43.537 51.8913C44.1842 69.718 59.4809 84.1323 77.7194 84.1323H130.434V84.0734ZM102.783 9.58984C111.431 9.58984 118.785 15.1202 121.256 23.0628C108.784 27.1812 99.7232 38.9479 99.7232 52.7739V53.6564H109.372V52.7739C109.372 42.3603 116.726 33.6529 126.551 31.5937L127.61 31.4172C128.199 31.2995 128.728 31.2407 129.258 31.2407C129.846 31.1818 130.434 31.123 130.964 31.123C136.906 31.123 142.437 33.4764 146.496 37.7124C150.614 41.9484 152.733 47.5965 152.556 53.5387C152.144 65.0113 142.201 74.3659 130.317 74.3659H128.199H77.5429C64.4818 74.3659 53.4799 64.0699 53.0681 51.4207C52.8327 44.8901 55.1861 38.7126 59.7163 34.0059C64.2465 29.2992 70.3064 26.7105 76.8957 26.7105C80.3669 26.7105 83.4263 24.6513 84.7795 21.4743C87.8977 14.2966 94.9577 9.58984 102.783 9.58984Z" fill="#FF5C12"/>
</svg>
