<svg xmlns="http://www.w3.org/2000/svg" viewBox="0 0 502.5 453"><defs><style>.cls-1,.cls-4{fill:#fff;}.cls-1{stroke:#fff;}.cls-2{fill:#00395a;stroke:#00395a;}.cls-3{fill:none;}</style></defs><title>state-auditor-seal-white</title><g id="Layer_2" data-name="Layer 2"><g id="selected_text" data-name="selected text"><path class="cls-1" d="M15.93,189.09l-.08.67c.81.26,1.73.89,1.63,1.74a3,3,0,0,1-.54,1.09,12.1,12.1,0,0,0-2.07,5.35c-1,7.93,4.76,14,12.49,15,7.39.89,13.78-3.49,14.71-10.95.63-5.12-1.26-8.6-5.39-11.53l-.46.54c3.14,2.76,4.85,5.15,4.33,9.3-.55,4.45-3.92,9.32-12.68,8.25s-12.28-5.38-11.63-10.58c.6-4.84,4-7.09,8.58-7.76l.06-.59-8.95-.5"/><path class="cls-1" d="M39.63,169l3.56-.46a10.24,10.24,0,0,1,3.17-.08c1.34.37,1.37,1.41,1,3.06l.68.19,2.86-9.88-.68-.19c-.93,2.77-3.28,2.88-5.85,3.18l-23.11,2.65-.2.68,18.73,15.06c2.35,1.9,3.11,3,2.73,5l.69.2,2.28-7.88-.68-.19c-.53,1.37-1.13,2.84-2.53,2.44a7.94,7.94,0,0,1-2.33-1.56l-3.12-2.53Zm-1.53.11-2.49,8.63-9-7.26,11.45-1.37"/><path class="cls-1" d="M36.07,143.89c-3.22-1.55-4.25-2-2.32-6l-.64-.31-5.22,10.59.65.3c1.63-3.32,2.53-2.89,5.53-1.44l14.59,7c3,1.44,3.89,1.88,2.25,5.2l.65.32,8.92-18.13L55,136.37l-.39.51c3.1,3.34,3.41,5.67,2,8.5l-2.58,5.24c-.79,1.6-2.11,1-3.9.09l-14.12-6.82"/><path class="cls-1" d="M48.07,120c-2.86-1.71-3.72-2.21-1.78-5.39l-.62-.36-5.78,9.52.61.36c1.93-3.17,2.78-2.66,5.65-1l13.9,8.27c2.88,1.71,3.73,2.21,1.8,5.39l.61.36,5.78-9.52-.62-.36c-1.92,3.18-2.77,2.66-5.63,1L48.07,120"/><path class="cls-1" d="M53.79,104.63,57,100.41c2.23-2.93,3.46-3.89,7.27-2.42l.41-.53-4.75-3.25L48.16,109.68l.56.43c2.26-3,3.05-2.36,5.71-.37l13,9.67c2.68,2,3.47,2.58,1.22,5.53l.57.44,6.75-8.88-.57-.42c-2.25,3-3,2.36-5.71.37l-6.29-4.7,2.58-3.39c1.73-2.27,2.88-2.68,5.3-.94l.43-.56-7.12-5.31-.43.57c2.37,1.81,2.28,3,.55,5.29l-2.58,3.39-8.3-6.17"/><path class="cls-1" d="M92.35,97.74C97.59,92,96.22,84,90.74,79.14s-13.61-5.4-18.85.37S68,93.23,73.5,98.11,87.1,103.51,92.35,97.74Zm-1.07-.95c-4.36,4.8-10.4,2-14.8-2S68.59,85.25,73,80.46s10.4-2,14.8,2S95.65,92,91.28,96.79"/><path class="cls-1" d="M124.29,70.24l-.43-.57c-3,1.93-5.37,1.25-8.56.27l-8.4-2.6c2.33-2.63,3.49-6.15,1.19-9.17-1.39-1.83-5.23-4.58-11.42,0L87.55,65l.43.57c3-2.23,3.58-1.44,5.6,1.2l9.77,12.83c2,2.64,2.6,3.43-.39,5.65l.43.57,9-6.68-.44-.56c-3,2.22-3.57,1.43-5.58-1.21L102,71.66l2.16-1.61,14.54,4.38ZM94.6,62A21.94,21.94,0,0,1,97,59.74,5.3,5.3,0,0,1,104.63,61c2.65,3.48.29,6.93-2.73,9.18l-.7.52L94.6,62"/><path class="cls-1" d="M119.64,49.45l.06,0,25.7,9.17.61-.37L134.83,39.78c-1.73-2.84-2.24-3.68,1-5.59l-.37-.61-7.88,4.69.37.6c3.2-1.9,3.72-1.06,5.44,1.78l7.54,12.42-.07,0L117,44.57l-6.13,3.65.36.61c2.29-1.35,3.73-1.11,5.89-.32l9.17,15.12c1.72,2.84,2.23,3.68-1,5.58l.36.61,7.88-4.68-.36-.61c-3.21,1.91-3.73,1.06-5.45-1.78l-8.06-13.3"/><path class="cls-1" d="M151.58,33.22c-1.14-3.11-1.49-4,2-5.3l-.23-.67-10.55,3.8.25.66c3.51-1.26,3.85-.33,5,2.77l5.54,15.1c1.15,3.12,1.49,4-2,5.3l.24.66,10.54-3.79-.24-.66c-3.52,1.26-3.86.34-5-2.77l-5.55-15.1"/><path class="cls-1" d="M179.27,37.57l2.18,2.83a9.94,9.94,0,0,1,1.65,2.68c.34,1.33-.55,1.88-2.19,2.36l.18.69,10.07-2.49L191,43c-2.88.59-4.15-1.37-5.7-3.43L171.41,21.05l-.7.16L166.9,44.8c-.48,3-1,4.16-3,4.84l.17.69,8-2-.17-.69c-1.46.24-3,.47-3.4-.95a7.9,7.9,0,0,1,.21-2.77l.64-3.92Zm-.85-1.25-8.8,2.17,1.87-11.3,6.93,9.13"/><path class="cls-1" d="M219.45,13.81l-.72,0c-.11.79-.31,1.51-1.27,1.56a9.89,9.89,0,0,1-2.3-.63,9.44,9.44,0,0,0-3.62-.56c-4.12.21-7.62,3.35-7.41,7.36.41,7.79,14.43,7.77,14.75,13.75.14,2.87-2.36,4.38-5,4.52-2.35.12-7.25-.73-8.18-7l-.71,0,.47,8.93.72,0c0-.79.19-1.48,1.11-1.52a9,9,0,0,1,2.86.56,11.14,11.14,0,0,0,4.2.53c5-.26,8.13-3.84,7.91-7.94-.41-7.71-14.83-7.91-15.12-13.38-.13-2.35,2.09-4.16,4.35-4.28,4.37-.23,7.24,3,7.74,7.09l.72,0-.48-9"/><path class="cls-1" d="M240.64,16.48l3.94.2c3.3.17,4.19,2.19,4.25,4.63l.72,0,0-6.1-21.45-1.12-.61,6.08.72,0c.33-2.43,1.42-4.35,4.72-4.17l3.93.2-1,19.35c-.18,3.3-.22,4.28-4,4.09l0,.71,11.2.58,0-.71c-3.74-.19-3.68-1.17-3.5-4.47l1-19.35"/><path class="cls-1" d="M266.31,35.32l.83,3.47a9.66,9.66,0,0,1,.41,3.1c-.23,1.36-1.26,1.51-3,1.29l-.13.7,10.23,1.78.13-.7c-2.88-.62-3.24-2.92-3.81-5.42l-5.08-22.48-.7-.12L252,37c-1.65,2.51-2.66,3.37-4.73,3.21l-.13.71,8.15,1.41.13-.7c-1.43-.37-3-.8-2.71-2.23a7.62,7.62,0,0,1,1.32-2.44l2.21-3.34ZM266,33.83l-8.93-1.55,6.35-9.57L266,33.83"/><path class="cls-1" d="M293.05,26.38l3.73,1.28c3.12,1.06,3.42,3.24,2.8,5.62l.67.23L302,27.65l-20.31-6.93-2.27,5.68.67.24c1-2.25,2.59-3.79,5.71-2.73l3.72,1.28L283.15,43.5c-1.09,3.13-1.41,4.06-4.95,2.86L278,47l10.62,3.61.23-.67c-3.54-1.21-3.21-2.14-2.12-5.26l6.36-18.33"/><path class="cls-1" d="M314,34.22l6,2.92c3.36,1.63,4.18,2.37,3.11,6.28l.71.35,2.2-5.3-18.16-8.76-.31.64c3.36,1.61,2.92,2.5,1.46,5.48L301.9,50.26c-1.47,3-1.9,3.86-5.26,2.24l-.32.64L314.67,62l4.89-4.9-.68-.34c-3.42,2.26-5.27,3.16-8.42,1.64L305.6,56c-1.5-.73-1.77-1.25-1.05-2.7l4.21-8.57,4.75,2.3c2.91,1.4,3.69,2.22,2.45,5.47l.64.3,4-8.17-.65-.31c-1.77,3-3,2.8-5.84,1.43L309.4,43.5,314,34.22"/><path class="cls-1" d="M345.42,71.33l-.84,3.47a10.37,10.37,0,0,1-1.06,3c-.84,1.1-1.82.76-3.24-.2l-.43.57,8.3,6.18.42-.56c-2.28-1.85-1.54-4.06-.9-6.54l5.78-22.32-.57-.42L332,66.38c-2.63,1.49-3.92,1.8-5.69.73l-.43.57,6.61,4.92.43-.57c-1.1-1-2.27-2-1.39-3.2a7.85,7.85,0,0,1,2.3-1.58l3.5-2Zm.45-1.44-7.25-5.4,10.05-5.67-2.8,11.07"/><path class="cls-1" d="M356.52,79.47c-3.48,3.84-5.28,8.64,1,14.23s11.12,2.77,14.33-.74l7.84-8.63c2.24-2.46,2.9-3.2,5.68-.72l.49-.53L379,77l-.47.53c2.77,2.47,2.11,3.2-.13,5.66l-6.54,7.2c-1.44,1.58-3.52,3.86-5.74,4.43a8.42,8.42,0,0,1-7.33-2.25c-1.95-1.73-3.11-4.36-2-6.89A23.42,23.42,0,0,1,360.21,81l7-7.73c2.24-2.46,2.91-3.19,5.69-.71l.47-.53-8.33-7.43-.48.52c2.78,2.48,2.12,3.22-.12,5.67l-7.94,8.72"/><path class="cls-1" d="M375.41,104.84c-2.66,2-3.46,2.58-5.71-.37l-.57.42,7.37,9.69c5.74,7.55,13.43,7.64,19.18,3.35,3.4-2.54,5.73-6.35,5.49-10.65-.22-3.69-2.71-7.15-4.89-10l-6.12-8.05-.58.42c2.25,3,1.46,3.55-1.21,5.54Zm17.66-8.53a14.48,14.48,0,0,1,2.83,2.81c4.17,5.47,2.22,11.47-3,15.36s-11.56,4.12-15.65-1.25a17.81,17.81,0,0,1-2.07-3.59l17.88-13.33"/><path class="cls-1" d="M408.33,124.41c2.87-1.7,3.72-2.21,5.65,1l.61-.37-5.77-9.52-.62.36c1.93,3.18,1.07,3.69-1.79,5.39l-13.91,8.27c-2.87,1.7-3.72,2.21-5.64-1l-.61.37,5.77,9.51.61-.36c-1.92-3.17-1.07-3.68,1.79-5.39l13.91-8.27"/><path class="cls-1" d="M421.19,142.63l1.6,3.56c1.34,3-.06,4.69-2.24,5.86l.3.65,5.51-2.74-8.74-19.42-5.74,2.23.29.65c2.34-.82,4.55-.72,5.9,2.26l1.6,3.56-17.88,7.89c-3.05,1.34-4,1.74-5.48-1.64l-.65.29,4.56,10.14.66-.28c-1.53-3.38-.62-3.78,2.43-5.13l17.88-7.88"/><path class="cls-1" d="M406,175.25c1.9,7.52,9.33,10.84,16.47,9.07s12.13-8.14,10.24-15.67-9.33-10.85-16.47-9.08S404.06,167.72,406,175.25Zm1.4-.35c-1.59-6.27,4.16-9.64,9.92-11.05s12.42-1.12,14,5.15-4.17,9.63-9.92,11.05-12.43,1.11-14-5.15"/><path class="cls-1" d="M414.43,215.86l.71-.12c-.3-3.59,1.41-5.28,3.77-7.61l6.27-6.13c1.25,3.28,3.85,5.94,7.62,5.35,2.28-.36,6.54-2.42,5.33-10l-1.79-11.16-.7.11c.58,3.66-.4,3.81-3.7,4.33l-16,2.51c-3.3.52-4.28.67-4.86-3l-.71.1,1.75,11,.7-.1c-.58-3.66.4-3.81,3.71-4.33l7.15-1.12.42,2.64L413.33,209Zm21.31-22.09a19.68,19.68,0,0,1,.86,3.14A5.2,5.2,0,0,1,432,203c-4.36.68-6.32-3-6.91-6.69l-.14-.86,10.84-1.7"/><polyline class="cls-2" points="167.26 388.35 171 383.37 176.02 385.15 172.96 380.7 176.46 376.07 171.11 377.85 167.99 373.11 167.75 378.79 162.38 380.23 167.54 382.07 167.26 388.35"/><polyline class="cls-2" points="149.85 380.83 154.15 376.31 158.92 378.66 156.39 373.89 160.41 369.69 154.89 370.85 152.34 365.77 151.45 371.39 145.94 372.2 150.86 374.63 149.85 380.83"/><polyline class="cls-1" points="254.09 55.75 251.48 61.41 246.2 60.71 250.12 64.42 247.67 69.68 252.52 66.82 256.56 70.82 255.61 65.2 260.57 62.67 255.13 61.95 254.09 55.75"/><polyline class="cls-1" points="271.98 59.37 268.73 64.7 263.56 63.38 267.04 67.53 263.99 72.47 269.13 70.19 272.69 74.62 272.39 68.94 277.61 66.99 272.3 65.65 271.98 59.37"/><polyline class="cls-1" points="289.87 64.82 286.01 69.72 281.03 67.8 283.98 72.33 280.37 76.87 285.75 75.22 288.75 80.05 289.13 74.38 294.55 73.07 289.43 71.1 289.87 64.82"/><polyline class="cls-1" points="306.77 72.46 302.37 76.88 297.65 74.41 300.06 79.24 295.94 83.34 301.49 82.31 303.9 87.46 304.94 81.86 310.47 81.19 305.62 78.64 306.77 72.46"/><polyline class="cls-1" points="323.4 82.47 318.52 86.34 314.12 83.34 315.95 88.42 311.38 92.01 317.01 91.64 318.82 97.02 320.49 91.59 326.06 91.56 321.53 88.47 323.4 82.47"/><polyline class="cls-1" points="337.83 93.8 332.52 97.09 328.51 93.59 329.74 98.85 324.8 101.89 330.42 102.17 331.59 107.73 333.88 102.53 339.42 103.14 335.28 99.55 337.83 93.8"/><polyline class="cls-1" points="351.2 106.62 345.54 109.28 341.96 105.35 342.57 110.71 337.31 113.16 342.87 114.08 343.39 119.74 346.27 114.84 351.7 116.08 348 112.04 351.2 106.62"/><polyline class="cls-1" points="362.46 119.95 356.7 122.36 353.3 118.28 353.67 123.66 348.31 125.88 353.82 127.04 354.11 132.72 357.23 128.08 362.56 129.43 359.04 125.23 362.46 119.95"/><polyline class="cls-1" points="373.3 135.19 367.31 136.93 364.39 132.47 364.14 137.87 358.56 139.45 363.9 141.25 363.52 146.92 367.14 142.53 372.3 144.62 369.29 140.03 373.3 135.19"/><polyline class="cls-1" points="382.26 151.1 376.1 152.12 373.72 147.36 372.86 152.69 367.13 153.62 372.22 156.02 371.2 161.6 375.29 157.66 380.18 160.34 377.72 155.44 382.26 151.1"/><polyline class="cls-1" points="389.83 168.2 383.61 168.48 381.8 163.46 380.3 168.65 374.51 168.89 379.28 171.88 377.59 177.31 382.13 173.88 386.66 177.13 384.8 171.97 389.83 168.2"/><polyline class="cls-1" points="395.12 185.97 388.9 185.53 387.68 180.35 385.6 185.33 379.81 184.9 384.21 188.42 381.9 193.61 386.81 190.73 390.94 194.48 389.69 189.15 395.12 185.97"/><polyline class="cls-1" points="398.42 205.09 392.3 203.94 391.69 198.65 389.05 203.36 383.35 202.25 387.31 206.26 384.42 211.16 389.62 208.86 393.29 213.06 392.67 207.61 398.42 205.09"/><polyline class="cls-1" points="399.29 223.43 393.35 221.56 393.36 216.24 390.18 220.61 384.65 218.85 388.12 223.29 384.68 227.82 390.11 226.14 393.27 230.74 393.28 225.25 399.29 223.43"/><polyline class="cls-1" points="395.4 260.72 389.85 257.87 390.76 252.63 386.89 256.4 381.73 253.74 384.4 258.69 380.25 262.57 385.89 261.85 388.22 266.91 389.16 261.5 395.4 260.72"/><polyline class="cls-1" points="390.75 278.84 385.56 275.37 387.07 270.27 382.8 273.56 377.98 270.33 380.06 275.56 375.49 278.94 381.18 278.86 382.91 284.16 384.47 278.9 390.75 278.84"/><polyline class="cls-1" points="384.39 295.94 379.64 291.9 381.73 287.01 377.11 289.8 372.7 286.02 374.16 291.46 369.23 294.28 374.88 294.86 375.99 300.33 378.14 295.28 384.39 295.94"/><polyline class="cls-1" points="376.24 312.77 372 308.19 374.65 303.57 369.73 305.79 365.81 301.5 366.61 307.09 361.37 309.3 366.92 310.55 367.36 316.11 370.11 311.36 376.24 312.77"/><polyline class="cls-1" points="366.07 328.28 362.38 323.24 365.55 318.97 360.41 320.6 357.01 315.89 357.15 321.53 351.7 323.13 357.06 325.01 356.87 330.58 360.14 326.18 366.07 328.28"/><polyline class="cls-1" points="353.6 343.15 350.53 337.73 354.18 333.85 348.87 334.86 346.04 329.8 345.53 335.42 339.93 336.37 345.05 338.86 344.2 344.38 347.96 340.38 353.6 343.15"/><polyline class="cls-1" points="340.17 355.65 337.74 349.9 341.81 346.48 336.43 346.87 334.19 341.51 333.04 347.03 327.37 347.32 332.16 350.4 330.69 355.78 334.89 352.24 340.17 355.65"/><polyline class="cls-1" points="325.43 366.86 323.67 360.88 328.12 357.94 322.73 357.72 321.12 352.13 319.35 357.48 313.67 357.12 318.08 360.72 316 365.89 320.57 362.87 325.43 366.86"/><polyline class="cls-1" points="311.12 375.68 309.63 369.62 314.19 366.87 308.81 366.42 307.43 360.78 305.44 366.05 299.79 365.46 304.03 369.24 301.73 374.32 306.43 371.48 311.12 375.68"/><polyline class="cls-1" points="294.39 384.05 293.61 377.86 298.46 375.65 293.16 374.59 292.45 368.83 289.86 373.83 284.31 372.59 288.09 376.84 285.24 381.61 290.23 379.34 294.39 384.05"/><polyline class="cls-1" points="277.31 390.46 277.24 384.23 282.31 382.59 277.17 380.92 277.13 375.12 273.99 379.8 268.62 377.92 271.89 382.57 268.49 386.99 273.71 385.31 277.31 390.46"/><polyline class="cls-1" points="259.26 395.33 259.93 389.13 265.16 388.11 260.26 385.84 260.91 380.07 257.23 384.33 252.13 381.83 254.81 386.83 250.91 390.82 256.3 389.77 259.26 395.33"/><polyline class="cls-1" points="240.87 397.81 242.26 391.73 247.57 391.33 242.96 388.5 244.29 382.85 240.13 386.66 235.35 383.59 237.44 388.87 233.11 392.38 238.58 391.96 240.87 397.81"/><polyline class="cls-1" points="222.54 399.08 224.34 393.12 229.66 393.07 225.25 389.94 226.94 384.39 222.54 387.91 217.98 384.52 219.72 389.94 215.16 393.14 220.65 393.09 222.54 399.08"/><polyline class="cls-1" points="203.89 397.78 206.35 392.06 211.65 392.62 207.63 389.01 209.95 383.69 205.18 386.68 201.03 382.79 202.13 388.37 197.23 391.03 202.69 391.61 203.89 397.78"/><polyline class="cls-1" points="72.72 304.13 78.84 302.95 81.35 307.65 82.08 302.3 87.78 301.23 82.63 298.95 83.52 293.34 79.52 297.39 74.57 294.83 77.15 299.66 72.72 304.13"/><polyline class="cls-1" points="65.34 287.54 71.56 287.11 73.5 292.07 74.86 286.85 80.65 286.47 75.81 283.59 77.36 278.12 72.91 281.66 68.29 278.53 70.28 283.64 65.34 287.54"/><polyline class="cls-1" points="59.62 269.59 65.85 269.87 67.19 275.02 69.15 269.99 74.95 270.27 70.46 266.87 72.63 261.61 67.8 264.62 63.59 260.98 64.96 266.28 59.62 269.59"/><polyline class="cls-1" points="55.51 251.18 61.67 252.19 62.4 257.46 64.92 252.69 70.65 253.64 66.59 249.74 69.36 244.78 64.22 247.2 60.45 243.09 61.21 248.53 55.51 251.18"/><polyline class="cls-1" points="54.5 232.57 60.49 234.27 60.62 239.6 63.68 235.15 69.25 236.77 65.67 232.41 69 227.81 63.6 229.62 60.34 225.1 60.46 230.59 54.5 232.57"/><polyline class="cls-1" points="54.99 213.42 60.74 215.82 60.26 221.11 63.81 217.05 69.16 219.29 66.11 214.57 69.94 210.37 64.38 211.54 61.65 206.68 61.14 212.14 54.99 213.42"/><polyline class="cls-1" points="57.76 194.56 63.39 197.26 62.61 202.53 66.38 198.66 71.61 201.19 68.81 196.31 72.86 192.31 67.24 193.19 64.78 188.19 63.98 193.61 57.76 194.56"/><polyline class="cls-1" points="61.95 176.02 67.23 179.34 65.84 184.49 70.03 181.09 74.93 184.2 72.72 179.02 77.2 175.52 71.52 175.75 69.66 170.49 68.23 175.8 61.95 176.02"/><polyline class="cls-1" points="68.19 158.75 73.04 162.67 71.07 167.62 75.63 164.72 80.13 168.38 78.53 162.98 83.39 160.03 77.73 159.6 76.48 154.16 74.45 159.26 68.19 158.75"/><polyline class="cls-1" points="76.24 141.72 80.59 146.19 78.04 150.88 82.92 148.54 86.94 152.72 86.01 147.16 91.19 144.82 85.61 143.7 85.03 138.16 82.4 142.98 76.24 141.72"/><polyline class="cls-1" points="87.27 125.65 91.08 130.59 88.01 134.94 93.12 133.19 96.65 137.79 96.35 132.17 101.76 130.44 96.35 128.69 96.41 123.12 93.25 127.6 87.27 125.65"/><polyline class="cls-1" points="99.36 110.77 102.56 116.13 99.02 120.09 104.29 118.94 107.26 123.93 107.61 118.31 113.19 117.22 108.02 114.86 108.72 109.32 105.07 113.41 99.36 110.77"/><polyline class="cls-1" points="112.78 97.63 115.35 103.31 111.37 106.85 116.73 106.31 119.11 111.61 120.12 106.07 125.79 105.63 120.92 102.68 122.26 97.27 118.15 100.9 112.78 97.63"/><polyline class="cls-1" points="126.92 86.36 128.82 92.31 124.46 95.36 129.85 95.45 131.6 100.99 133.24 95.59 138.92 95.81 134.43 92.32 136.38 87.1 131.88 90.23 126.92 86.36"/><polyline class="cls-1" points="142.89 76.24 144.54 82.27 140.05 85.13 145.44 85.44 146.95 91.05 148.81 85.72 154.48 86.18 150.14 82.51 152.3 77.37 147.68 80.32 142.89 76.24"/><polyline class="cls-1" points="160.97 67.77 161.93 73.94 157.13 76.27 162.45 77.2 163.31 82.94 165.77 77.87 171.35 78.97 167.46 74.83 170.2 69.98 165.26 72.37 160.97 67.77"/><polyline class="cls-1" points="178.84 60.93 179.06 67.16 174.04 68.92 179.21 70.46 179.4 76.27 182.43 71.52 187.84 73.25 184.46 68.68 187.74 64.18 182.57 65.99 178.84 60.93"/><polyline class="cls-1" points="197.71 56.55 197.19 62.77 191.98 63.92 196.94 66.06 196.43 71.85 200.01 67.5 205.18 69.87 202.36 64.93 206.17 60.85 200.81 62.03 197.71 56.55"/><polyline class="cls-1" points="216.02 53.92 214.79 60.03 209.49 60.57 214.17 63.28 212.99 68.96 217.05 65.05 221.91 68 219.68 62.77 223.92 59.16 218.47 59.71 216.02 53.92"/><path class="cls-3" d="M226.5,3C103.26,3,3,103.26,3,226.5S103.26,450,226.5,450,450,349.74,450,226.5,349.74,3,226.5,3Z"/><path class="cls-4" d="M226.5,49.5c-97.6,0-177,79.4-177,177a175.94,175.94,0,0,0,17.63,77l5.44,4.08A173,173,0,0,1,52.5,226.5c0-95.94,78.06-174,174-174s174,78.06,174,174-78.06,174-174,174a173.75,173.75,0,0,1-39.09-4.43l-2.87,2.39a176.52,176.52,0,0,0,42,5c97.6,0,177-79.4,177-177S324.1,49.5,226.5,49.5Z"/><path class="cls-4" d="M386.66,66.34A226.5,226.5,0,0,0,66.34,386.66,226.5,226.5,0,0,0,386.66,66.34ZM226.5,450C103.26,450,3,349.74,3,226.5S103.26,3,226.5,3,450,103.26,450,226.5,349.74,450,226.5,450Z"/><path class="cls-4" d="M379.5,226.5c0-84.36-68.64-153-153-153s-153,68.64-153,153a152.12,152.12,0,0,0,27,86.69V307.8a149.09,149.09,0,0,1-24-81.3c0-82.71,67.29-150,150-150s150,67.29,150,150-67.29,150-150,150c-5,0-9.88-.25-14.73-.72l-3.2,2.66a153.75,153.75,0,0,0,17.93,1.06C310.86,379.5,379.5,310.86,379.5,226.5Z"/><path class="cls-4" d="M258.82,148.89h-.13l.15,0Z"/><path class="cls-4" d="M258.84,148.92l-.15,0a19.84,19.84,0,0,1,1.87,2c2.08.57,10.46,3.68,14.52,16.75a123.73,123.73,0,0,1,5.13,26.75c.75.22,1.5.43,2.22.69,0-.34-.07-.69-.11-1.06-.38-6.92-2.93-26.26-9.84-36.18a21.79,21.79,0,0,0-8.79-7.33l-3.56-.13Z"/><path class="cls-4" d="M125.39,250.36c.08-.48.16-1,.28-1.5A13.17,13.17,0,0,0,125.39,250.36Z"/><path class="cls-4" d="M333.14,236.27c-11.17-9.42-25.5-15-39.4-19-37.31-10.82-79.08-11.69-116.7-1.8-13.85,3.64-45.13,14.34-50.82,31.45l1.95,4.75-.15,7.65,1.25,4.13v1.62L128,263.9l-1.52-4a11.4,11.4,0,0,1-1-2.91,21.46,21.46,0,0,1-.29-11.08c1.61-6.65,7.95-14.09,14.2-20.05,19.34-16,55.66-27.84,97-27,40.94.81,76.36,13.88,95.13,30.43-3.25-4.44-8.35-10.35-14.32-14.43-10.12-7-41.72-22.67-79.67-23.21-18.4-.26-42.35,1.89-63,10.55A111.89,111.89,0,0,0,163,206.92s-7.56,3.51-11.21,6.22a90.65,90.65,0,0,0-14.57,12.56s-10.38,8.33-12.69,19.73a25.26,25.26,0,0,0,4.33,20.26.59.59,0,0,1,.11.17c0,1.75-.14,3.85-.17,5.51.49-.24.6-.31,1.07-.53a32.56,32.56,0,0,0-.07-7.09c-.3-2.34-1.39-1.46-1.15-6.45,1-22.12,46.38-40.3,102.78-41,54.1-.68,96.08,18.25,106.56,35.52a12.74,12.74,0,0,1,1.34,3.23l4.34-2.26C342.36,246.38,338.22,240.55,333.14,236.27Z"/><path class="cls-4" d="M273.7,156.55s12.57,7.29,17.63,27.78c2.46,9.91,2.84,13.82,2.89,15.19.84.38,1.67.76,2.5,1.16a88.43,88.43,0,0,0-5.45-23c-6.85-18.39-17.84-23.77-21.73-25.14A44.4,44.4,0,0,1,273.7,156.55Z"/><path class="cls-4" d="M249.57,147.88l.17.24-.12-.25Z"/><path class="cls-4" d="M258.59,153.35a50.35,50.35,0,0,1,4.92,12.56,103.2,103.2,0,0,1,1.82,12c.53,5.57.68,10.67.73,12.91l2.46.5c0-2.06-.06-15.25-3.33-26.67-3.05-10.67-7.65-17.08-12.92-17.2l-2.53.67C251.78,148.25,256.32,149.05,258.59,153.35Z"/><path class="cls-4" d="M251.8,147.42l.34,0C252,147.44,251.92,147.41,251.8,147.42Z"/><path class="cls-4" d="M300.09,186.67a110.1,110.1,0,0,1,4.5,18c.52.28,1.07.56,1.58.89-.45-3.78-2.16-17-8.79-29a68.52,68.52,0,0,0-6.59-10.28s12.59,10.62,19.88,33.38c1.87,5.91,2.64,8.95,3.12,10.49.57.39,1.16.76,1.74,1.14.22.14.43.3.68.47-.71-3.36-7.45-29.57-20.45-42.16a88.06,88.06,0,0,0-16.5-12.9C283,159.36,293.86,168.24,300.09,186.67Z"/><path class="cls-4" d="M236.13,136.59a47.44,47.44,0,0,1,20.61,4.22c-3.3-5.44-11.4-9.22-20.88-9.1a28.44,28.44,0,0,0-16.34,4.95c2.36-2.21,3.4-3.49,6.71-4.53l.15-19.9a2.43,2.43,0,0,1,1.41-2.41c1.77-.81,1.75,1.2,1.75,1.2l.27,20.1a26.73,26.73,0,0,1,4.41-.54l-.28-21.43a1.71,1.71,0,0,1,1.38-1.75c.31,0,1.63.16,1.64,1.46l.29,21.59a16.93,16.93,0,0,1,4.67.38L241.67,110a1.64,1.64,0,0,1,1.61-1.78,2.12,2.12,0,0,1,1.85,2l.28,21.47a16.7,16.7,0,0,1,3.35,1.26l-.27-20.47c0-1.76.84-1.45,1.37-1.45s.93.73,1.13,1.68l.27,21.52a25.87,25.87,0,0,1,2.19,1.55l-.25-19c0-1.28.19-2.33.5-2.33s.51,1,.55,2.31v1.69a6.46,6.46,0,0,0,.48-2.32,10.64,10.64,0,0,0,3.53-6.44,9.6,9.6,0,0,0-1.1-2.72C254.1,102,246,98.4,236.48,98.54a29.9,29.9,0,0,0-16,4.44,26.67,26.67,0,0,1,16.68-6c10.08-.13,18.89,3.64,21,9.53a6.82,6.82,0,0,1,.35,1.67c0-.18,0-.36,0-.54a8.74,8.74,0,0,0-.81-3.5c-.12-.22-.24-.42-.36-.63-3-4.77-11.46-7.83-20.79-7.72a29.53,29.53,0,0,0-15.42,4.94c.92-.75-5.18,3.37-4.81,8.44a10.45,10.45,0,0,0,2.87,6.5,6.11,6.11,0,0,0-.05.86,6.7,6.7,0,0,0,1,3.37l-.25,15.3a11.85,11.85,0,0,0-3.7,4.51c-.79.35-1.67,1-2.37,1.34-.24.1-.05.5,0,.93C219.3,138.8,227.26,136.69,236.13,136.59Z"/><path class="cls-4" d="M194.19,157.15c.56-.3,1-.72,1.39-.9.62-.44,1.27-.67,1.88-1.05a46.34,46.34,0,0,1,7.81-3.3c-25.37,16.59-29.86,46.58-29.86,46.58l3.72-1.67c5.78-35.75,32.43-46.91,37.7-48.78.17,0,3.9-1.78,6.71-1.27-20.46,10.55-23.73,45-23.73,45l4.61-1c2-32.42,16.49-41.94,23.46-44.64.07,0,2.24-1.11,4-.12.22-.05.45-.08.66-.11-2,4.18-4.15,41.93-4.15,41.93l5.39.05c-1.88-9.77,1.35-41.7,1.35-41.7a3.34,3.34,0,0,1,.82.65c1.17-1,4-.51,4-.51a9.13,9.13,0,0,1,2.68,1.28l0,0c1.71,1.25,7.21,7.84,6,41.36l2.78.31s1-39.54-7.09-43a3,3,0,0,1,3.87.25,9.53,9.53,0,0,1,1.37,1.48l.07,0-.4-.83v-.13l1.19.13a1.15,1.15,0,0,0,.67.33,7.88,7.88,0,0,1,7.61,1.54h.13l-.29-.3h.72l.92.35a17,17,0,0,1,5.41,1.37c-2.48-7.5-14.95-13.09-29.92-12.89-8.59.11-16.31,2.11-21.76,5.21l-.48.26a20.44,20.44,0,0,0-4.8,3.84c-.23.22-.66.65-.75.77-.84,1.08-2.72,1-3,2.22,0,0,.28.77.74.66a26.35,26.35,0,0,0-3.53,1.05,14.78,14.78,0,0,0-3.59,1.52c-5.56,2.74-13.46,8.2-22.14,19.05,0,0-12.08,14.55-16.67,33.08l3.53-1.83S171.67,171.73,194.19,157.15Z"/><path class="cls-4" d="M139,327.21,141.13,290c-4.12,1.29-7.93,2.71-11.42,4.2-.07,1.27-.2,3.22-.37,5.63-.3,4.23-.71,9.88-1.17,15.9l-2.07,26.31,11.4,8.32Z"/><path class="cls-4" d="M281.45,283.85c-5.69-.87-11.54-1.63-17.49-2.22l-.33,12.92,17.8-9.3Z"/><path class="cls-4" d="M256.09,280.9c-5.77-.48-10.11-.84-15.87-1L239,307.38l16.51-8.61Z"/><path class="cls-4" d="M124.76,296.5a59.15,59.15,0,0,0-7.92,4.69l-.43,5.19-1.22,14.47,0,0-1,12.46,7.85,5.72Z"/><path class="cls-4" d="M181.26,281.92c-5.24.61-9.45,1.35-14.3,2.2l-4.14,63.05,15.5-8.09Z"/><path class="cls-4" d="M156.62,350.4l1.84-31.25,2.21-34c-5.1,1-9.93,2.15-14.46,3.4-.37,7.82-1.5,22.49-1.55,23.25l-2.4,42.08,3.22,2.35Z"/><path class="cls-4" d="M204.42,319.39,205.63,280c-6.08.26-11.15.68-16.88,1.25l-3.13,54.06,18.52-9.68Z"/><path class="cls-4" d="M170.93,234.23c-3.58-.36-4.34,6.08-4.34,6.08l-.9,19c2.22-.51,4.48-1,6.76-1.46l1.48-21.05A3,3,0,0,0,170.93,234.23Z"/><path class="cls-4" d="M317.79,249.24c-.67-4.86-4-6.34-5-6.1l.17,22.23c1.37.44,2.69.89,4,1.34l1.2-.61C318.22,261.76,318.28,252.77,317.79,249.24Z"/><path class="cls-4" d="M156.86,239.62c-3.61,0-3.45,5.83-3.45,5.83l-.84,17.37c1.63-.49,3.3-1,5-1.44l1.51-19.94A2.76,2.76,0,0,0,156.86,239.62Z"/><path class="cls-4" d="M187.45,230.11c-3.58-.39-4.18,4.51-4.18,4.51l-1.11,21.52q4.23-.64,8.6-1.22c.18-5.41.61-19.28.77-20.17A4.15,4.15,0,0,0,187.45,230.11Z"/><path class="cls-4" d="M328,254.38c0-2.66-1.76-4.6-2.64-4.91l.06,12.81,2.73-1.43C328.09,257.67,328,254.9,328,254.38Z"/><path class="cls-4" d="M205.43,227.8c-3.84,0-4.18,3.94-4.18,3.94l-1.12,22.2c2.83-.23,5.7-.45,8.63-.63.17-4.76.74-19.59.76-20.54C209.54,231.39,209.26,227.82,205.43,227.8Z"/><path class="cls-4" d="M229.84,230.85a4,4,0,0,0-3.63-4.44,4.72,4.72,0,0,0-5,2.72l-.48,23.73q4.54-.11,9.17-.05Z"/><path class="cls-4" d="M146.36,245.12a5.45,5.45,0,0,0-3.27,4.2L142,266.57a34.72,34.72,0,0,1,3.94-1.77l.91-19.89Z"/><path class="cls-4" d="M136.63,251.18a5.25,5.25,0,0,0-3,4.12l-1.07,15.76a14.59,14.59,0,0,1,3.36-1.92l.87-18Z"/><path class="cls-4" d="M304.17,243.3c-.28-3.79-2-5.2-3.66-5.78-2-.73-2.65,1.83-2.65,1.83l.27,21.81c2,.51,4,1,5.93,1.57C304.17,257.33,304.36,246.14,304.17,243.3Z"/><path class="cls-4" d="M246.55,227.27c-3.3-.4-5.05,2.73-5.05,2.73v23.16c3.16.13,6.31.33,9.41.55-.08-5.38-.24-20.67-.06-21.58A4.93,4.93,0,0,0,246.55,227.27Z"/><path class="cls-4" d="M266,229.47a3.78,3.78,0,0,0-4.21,2.31l-.13,22.95q4.4.48,8.7,1.08c-.06-5.49-.22-20.55-.06-21.46A4.92,4.92,0,0,0,266,229.47Z"/><path class="cls-4" d="M285,233.1a3.27,3.27,0,0,0-4.4,2.23l-.12,22.1c2.71.48,5.42,1,8,1.54l0-21A4.8,4.8,0,0,0,285,233.1Z"/><path class="cls-4" d="M300.35,272.67c-.89-.21-1.8-.38-2.64-.58h-.07a354.58,354.58,0,0,0-60-7l-3.8-.1c-32.59-.83-62.41,2.49-85.52,8.69h-.05a155,155,0,0,0-37.94,14.13,7.47,7.47,0,0,0-3,3,9.74,9.74,0,0,0-.75,4.67c.24,2.43,3.69,2.47,3.69,2.47,9.08-8.76,31.69-16,34.74-16.92,23.67-7,56.08-10.65,92.76-9.36,10.93.36,21.52,1.17,31.64,2.36,8.12.95,17.08,2.37,25.8,4.1l8.72-4.55C302.7,273.25,301.58,272.93,300.35,272.67Z"/><path class="cls-4" d="M111.45,329.24l.82-9h0V320l1.44-16.37a30.91,30.91,0,0,0-4.8,5.06c0,.42,0,1.54-.14,3.91l-1.13,13.57-.19,2.37,3.81,2.77Z"/><path class="cls-4" d="M148.7,264c0-.05.05-.05.09-.05h-.09Z"/><path class="cls-4" d="M242.46,95.6l-5.83-52-6,52.2A21,21,0,0,1,242.46,95.6Z"/><path class="cls-4" d="M230.63,279.64c-6-.12-10.9-.17-16.66,0l-1.72,41.73,17.65-9.21Z"/><path class="cls-4" d="M126.16,246.77c-.21.75-.35,1.42-.49,2.09a15.67,15.67,0,0,1,.55-1.94Z"/><path class="cls-4" d="M129.07,264c-3.18-4.88-4.17-9.41-3.68-13.61a19.3,19.3,0,0,0,.12,6.59,24.41,24.41,0,0,0,3.53,7.42A1.89,1.89,0,0,0,129.07,264Z"/><path class="cls-4" d="M128,263.9l1.25,1.17v-1.62L128,259.32l.15-7.65-1.95-4.75a15.67,15.67,0,0,0-.55,1.94c-.12.52-.2,1-.28,1.5-.49,4.2.5,8.73,3.68,13.61a1.89,1.89,0,0,1,0,.4,24.41,24.41,0,0,1-3.53-7.42,11.4,11.4,0,0,0,1,2.91Z"/><path class="cls-4" d="M249.62,147.87a7.5,7.5,0,0,1,2.18-.45,3.58,3.58,0,0,1-.72-.07,10.18,10.18,0,0,0-1.46.5Z"/><path class="cls-4" d="M252.39,147.41l-.25,0h.13Z"/><path class="cls-4" d="M249.74,148.12l2.53-.67h-.13l-.34,0a7.5,7.5,0,0,0-2.18.45Z"/><path class="cls-4" d="M249.22,146.89V147l.4.83a10.18,10.18,0,0,1,1.46-.5,1.15,1.15,0,0,1-.67-.33Z"/><path class="cls-4" d="M258.82,148.89l0,0a19.76,19.76,0,0,1,4.85,1.54h0s-1.8-.83-3.55-1.52A11.41,11.41,0,0,0,258.82,148.89Z"/><path class="cls-4" d="M260.13,150.33l3.56.13a19.76,19.76,0,0,0-4.85-1.54Z"/><path class="cls-4" d="M258.53,148.59l.29.3a11.41,11.41,0,0,1,1.35.05l-.92-.35Z"/><path class="cls-4" d="M344,257.84l-3.88,2-11.86,6.19-2.82,1.47-14.7,7.69-8.4,4.38-11.3,5.91-3.52,1.82-6.24,3.25-17.82,9.31-8.12,4.24-16.57,8.65-9.06,4.73L212,326.76,203.9,331l-18.6,9.72-40.21,21-13.18-9.59-6.26-4.57-4.06-3-7.93-5.78-2.89-2.12L107,333.93,70,307c22.74,42.15,80.75,114.52,80.75,114.52,48.06-41.35,117.25-91.07,181.58-135l4.44-3c88-60,165.72-108.33,165.72-108.33Z"/></g></g></svg>
