<svg id="レイヤー_3" data-name="レイヤー 3" xmlns="http://www.w3.org/2000/svg" viewBox="0 0 226.77 61.84"><defs><style>.cls-1{fill:#401c00;}.cls-2{fill:#f93;}.cls-3{fill:#fff;}</style></defs><path class="cls-1" d="M699.73,20a23.44,23.44,0,0,0-7.2,1.22c-.5.17-1.43.56-1.43.56L692.28,26l.21-.07,1.27-.39a19.23,19.23,0,0,1,5.29-1,5.56,5.56,0,0,1,3.68,1,4.09,4.09,0,0,1,1.12,3.13h-4.28c-3.14,0-5.61.66-7.34,2a6.09,6.09,0,0,0-2.49,5.13,6.19,6.19,0,0,0,2.13,4.86,7.69,7.69,0,0,0,5,1.75h.31a12.46,12.46,0,0,0,4.83-.81,12.94,12.94,0,0,0,1.85-.94v1.74h4.82v-14a8.25,8.25,0,0,0-2.15-5.81A8.7,8.7,0,0,0,699.73,20Zm4.13,13.31v1.88a8.2,8.2,0,0,1-2.46,1.88,7.6,7.6,0,0,1-3,.89c-2.61.17-4.12-.69-4.12-2.31,0-.86.85-1.57,1.7-1.89a12.48,12.48,0,0,1,4.1-.45Z" transform="translate(-505.85 -0.26)"/><path class="cls-1" d="M676.94,19.94a11.52,11.52,0,0,0-5.35,1.21V19.94h-5.15v29h5.15V41.23a11.52,11.52,0,0,0,5.35,1.2,10.48,10.48,0,0,0,7.91-3.12,11.35,11.35,0,0,0,3-8.12,11.41,11.41,0,0,0-3-8.13A10.48,10.48,0,0,0,676.94,19.94ZM673,36.3a5.6,5.6,0,0,1-1.38-2,7.86,7.86,0,0,1-.54-3.1,8,8,0,0,1,.54-3.11,5.37,5.37,0,0,1,5.37-3.47,5.78,5.78,0,0,1,4,1.46,6.64,6.64,0,0,1,1.94,5.1,6.65,6.65,0,0,1-1.93,5.16A5.66,5.66,0,0,1,679,37.42a6.18,6.18,0,0,1-4.2,0A5.13,5.13,0,0,1,673,36.3Z" transform="translate(-505.85 -0.26)"/><path class="cls-1" d="M727.47,13.43v7.72a11.52,11.52,0,0,0-5.35-1.21,10.48,10.48,0,0,0-7.91,3.13,11.35,11.35,0,0,0-3,8.12,11.37,11.37,0,0,0,3,8.12,10.48,10.48,0,0,0,7.91,3.12,11.52,11.52,0,0,0,5.35-1.2v1.2h5.15v-29ZM728,31.21a8,8,0,0,1-.54,3.11,5.36,5.36,0,0,1-5.37,3.47,5.78,5.78,0,0,1-4-1.46,6.64,6.64,0,0,1-1.94-5.1,6.65,6.65,0,0,1,1.93-5.16A5.66,5.66,0,0,1,720,25a6.31,6.31,0,0,1,4.2,0,5.13,5.13,0,0,1,1.87,1.12,5.64,5.64,0,0,1,1.38,2A8,8,0,0,1,728,31.21Z" transform="translate(-505.85 -0.26)"/><polygon class="cls-1" points="158.19 23.65 155 19.6 143.76 28.44 143.76 13.17 138.6 13.17 138.6 42.17 143.76 42.17 143.76 35 146.49 32.85 154.53 42.26 158.45 38.92 150.55 29.66 158.19 23.65"/><path class="cls-1" d="M606.18,19.94a11.12,11.12,0,0,0-8.24,3.13,11.14,11.14,0,0,0-3.05,8.12,11.14,11.14,0,0,0,3,8.11,12.47,12.47,0,0,0,16.5,0,11.14,11.14,0,0,0,3.05-8.11,11.18,11.18,0,0,0-3.05-8.12A11.14,11.14,0,0,0,606.18,19.94Zm4.12,16.35a5.66,5.66,0,0,1-2,1.11,6.57,6.57,0,0,1-4.29,0,5.71,5.71,0,0,1-2-1.1,6.54,6.54,0,0,1-2-5.16,6.44,6.44,0,0,1,2-5.09,6.51,6.51,0,0,1,8.22,0,6.42,6.42,0,0,1,2,5.09A6.5,6.5,0,0,1,610.3,36.29Z" transform="translate(-505.85 -0.26)"/><path class="cls-1" d="M630.52,19.94a11.12,11.12,0,0,0-8.24,3.13,11.14,11.14,0,0,0-3,8.12,11.14,11.14,0,0,0,3,8.11,12.48,12.48,0,0,0,16.51,0,11.14,11.14,0,0,0,3-8.11,10.62,10.62,0,0,0-11.3-11.25Zm4.13,16.35a5.8,5.8,0,0,1-2,1.11,6.57,6.57,0,0,1-4.29,0,5.8,5.8,0,0,1-2-1.1,6.54,6.54,0,0,1-2-5.16,6.42,6.42,0,0,1,2-5.09,6.5,6.5,0,0,1,8.21,0,6.42,6.42,0,0,1,2,5.09A6.53,6.53,0,0,1,634.65,36.29Z" transform="translate(-505.85 -0.26)"/><path class="cls-1" d="M578,31.18a7.78,7.78,0,0,0,.77,3.42,6.2,6.2,0,0,0,2,2.15,6.08,6.08,0,0,0,3.5,1,7.9,7.9,0,0,0,1.87-.22,8.63,8.63,0,0,0,4.38-2.73l.15-.17L594,37.9a15,15,0,0,1-2,1.88,13,13,0,0,1-7.89,2.64A11.21,11.21,0,0,1,575,38.08a11.85,11.85,0,0,1-2.08-6.9,11.85,11.85,0,0,1,2.08-6.9,11.21,11.21,0,0,1,9.15-4.34A13,13,0,0,1,592,22.58a15,15,0,0,1,2,1.88l-3.35,3.27-.15-.16a8.58,8.58,0,0,0-4.38-2.74,7.9,7.9,0,0,0-1.87-.22,6.16,6.16,0,0,0-3.5,1,6.29,6.29,0,0,0-2,2.15A7.78,7.78,0,0,0,578,31.18Z" transform="translate(-505.85 -0.26)"/><path class="cls-2" d="M567.69,31.18A30.92,30.92,0,1,0,536.77,62.1,30.92,30.92,0,0,0,567.69,31.18Z" transform="translate(-505.85 -0.26)"/><path class="cls-3" d="M551.11,31.79a4.89,4.89,0,0,1-.54,0l.21-1.68a1.55,1.55,0,0,0-1.3-1.74,1.52,1.52,0,0,0-1.68,1.34s-.63,5-1.2,9.75H527a1.56,1.56,0,0,0,0,3.11h19.18c-.27,2.12-.48,3.86-.56,4.53H523c.29-2.31,1.47-11.93,1.92-15.57h-.16a6.38,6.38,0,1,1,5-10.38c.16.22.38.22.42-.09A6.44,6.44,0,0,1,543,20.66a9.88,9.88,0,0,0-.61,1.27L545,23.38a6.42,6.42,0,1,1,6.09,8.41Z" transform="translate(-505.85 -0.26)"/><path class="cls-1" d="M551.11,15.93a9.32,9.32,0,0,0-5.83,2A9.39,9.39,0,0,0,528.7,16.5a9.33,9.33,0,0,0-3.92-.86,9.49,9.49,0,0,0-3.18,18.41l-1.77,14.38a1.61,1.61,0,0,0,.36,1.23,1.54,1.54,0,0,0,1.13.52H547a1.51,1.51,0,0,0,1.49-1.36l1.72-14c.3,0,.61,0,.92,0a9.49,9.49,0,0,0,0-19Zm0,15.86a4.89,4.89,0,0,1-.54,0l.21-1.68a1.55,1.55,0,0,0-1.3-1.74,1.52,1.52,0,0,0-1.68,1.34s-.63,5-1.2,9.75H527a1.56,1.56,0,0,0,0,3.11h19.18c-.27,2.12-.48,3.86-.56,4.53H523c.29-2.31,1.47-11.93,1.92-15.57h-.16a6.38,6.38,0,1,1,5-10.38c.16.22.38.22.42-.09A6.44,6.44,0,0,1,543,20.66a9.88,9.88,0,0,0-.61,1.27L545,23.38a6.42,6.42,0,1,1,6.09,8.41Z" transform="translate(-505.85 -0.26)"/></svg>