<?xml version="1.0" encoding="UTF-8"?> <svg xmlns="http://www.w3.org/2000/svg" viewBox="0 0 116 87"><defs><style>.cls-1{fill:red;}</style></defs><g id="レイヤー_1" data-name="レイヤー 1"><path class="cls-1" d="M11,81.51l-3.57-6H4.27v6H1.47V66H8.09c3.62,0,5.79,1.73,5.79,4.61a4.36,4.36,0,0,1-3.49,4.43l-.17.08,4,6.36ZM4.27,73.12H8.16c1.14,0,3.05-.26,3.05-2.37,0-1.56-1-2.29-3.05-2.29H4.27Z"></path><path class="cls-1" d="M21.24,81.76a4.2,4.2,0,0,1-4.47-4.58V69.57h2.8V76c0,2.39.66,3.36,2.29,3.36a2.5,2.5,0,0,0,.74-.1l1.18,1.79A4.72,4.72,0,0,1,21.24,81.76ZM25,81.51V77.6h-.56v-8H27V81.51Z"></path><path class="cls-1" d="M36,81.76a5,5,0,0,1-3-.84l-.06,0-.38.07v.55H30.21V66H33v7.22l-.56.29v3.82c0,.88,1.81,2.11,3.15,2.11,2,0,3.11-1.44,3.11-4,0-1.6-.12-3.51-3.19-3.51a2.41,2.41,0,0,0-.67.08l-1-2a5.35,5.35,0,0,1,2.38-.51c3.18,0,5.23,2.15,5.23,6S39.3,81.76,36,81.76Z"></path><polygon class="cls-1" points="44.85 85.62 46.85 80.71 42.27 69.57 45.31 69.57 48.35 77.52 51.36 69.57 54.36 69.57 47.75 85.62 44.85 85.62"></polygon><path class="cls-1" d="M61.17,81.51V66H68c3.68,0,5.79,1.76,5.79,4.75S71.67,75.55,68,75.55H64v6ZM64,73.12H68c2,0,3.08-.76,3.08-2.37s-1-2.29-3.08-2.29H64Z"></path><path class="cls-1" d="M75.91,81.51V69.57h2.8v1.16l.84-.68-.17-.24a4.1,4.1,0,0,1,2.08-.54,5.79,5.79,0,0,1,2.17.48l-1,2.14A4.24,4.24,0,0,0,81,71.57c-1.09,0-1.91,1.08-2.26,2l0,0v7.92Z"></path><rect class="cls-1" x="85.99" y="69.57" width="2.8" height="11.94"></rect><polygon class="cls-1" points="91.96 81.52 91.96 79.58 97.9 72 92.15 72 92.15 69.57 101.47 69.57 101.47 71.48 95.62 79.09 101.66 79.09 101.66 81.52 91.96 81.52"></polygon><path class="cls-1" d="M109.17,81.68c-3.63,0-5.89-2.39-5.89-6.23s2.16-6.26,5.77-6.26c3.36,0,5.48,2.24,5.48,6v1.12h-7.09V74.55H112l0-.13c-.13-1.12-.68-3-3-3a2.73,2.73,0,0,0-2.08.81A5,5,0,0,0,106,76c0,.06,0,.1,0,.12a3.23,3.23,0,0,0,3.32,3.34,5.13,5.13,0,0,0,2.87-1.07L113.75,80A8.57,8.57,0,0,1,109.17,81.68Z"></path><polygon class="cls-1" points="85.49 66.03 89.2 66.03 87.35 68.83 85.49 66.03"></polygon><path class="cls-1" d="M60.57,26.79,58,56.93,92.44,23.48,61.77,25.59A1.31,1.31,0,0,0,60.57,26.79Z"></path><path class="cls-1" d="M55.53,19.71C55.7,18.57,58,1.38,58,1.38H38.11L23.57,23.49s28.66-1.75,30.12-1.86C55,21.53,55.38,20.75,55.53,19.71Z"></path><path class="cls-1" d="M60.37,19.71C60.19,18.57,58,1.38,58,1.38H77.89l14.55,22.1s-28.77-1.74-30.23-1.85C60.92,21.53,60.52,20.75,60.37,19.71Z"></path><path class="cls-1" d="M54.13,25.48l-30.56-2L58,56.93,55.33,26.68A1.3,1.3,0,0,0,54.13,25.48Z"></path></g></svg> 